<?xml version="1.0" standalone="no"?>
<!DOCTYPE svg PUBLIC "-//W3C//DTD SVG 1.1//EN" "http://www.w3.org/Graphics/SVG/1.1/DTD/svg11.dtd" >
<svg xmlns="http://www.w3.org/2000/svg">
<metadata>Generated by IcoMoon</metadata>
<defs>
<font id="icomoon" horiz-adv-x="1024">
<font-face units-per-em="1024" ascent="960" descent="-64" />
<missing-glyph horiz-adv-x="1024" />
<glyph unicode="&#x20;" horiz-adv-x="512" d="" />
<glyph unicode="&#xe600;" glyph-name="add-circle-outline" d="M554.667 661.333h-85.333v-170.667h-170.667v-85.333h170.667v-170.667h85.333v170.667h170.667v85.333h-170.667v170.667zM512 874.667c-235.733 0-426.667-190.933-426.667-426.667s190.933-426.667 426.667-426.667 426.667 190.933 426.667 426.667-190.933 426.667-426.667 426.667zM512 106.667c-188.16 0-341.333 153.173-341.333 341.333s153.173 341.333 341.333 341.333 341.333-153.173 341.333-341.333-153.173-341.333-341.333-341.333z" />
<glyph unicode="&#xe601;" glyph-name="add-circle" d="M512 874.667c-235.733 0-426.667-190.933-426.667-426.667s190.933-426.667 426.667-426.667 426.667 190.933 426.667 426.667-190.933 426.667-426.667 426.667zM725.333 405.333h-170.667v-170.667h-85.333v170.667h-170.667v85.333h170.667v170.667h85.333v-170.667h170.667v-85.333z" />
<glyph unicode="&#xe602;" glyph-name="add-shopping-cart" d="M469.333 576h85.333v128h128v85.333h-128v128h-85.333v-128h-128v-85.333h128v-128zM298.667 192c-47.147 0-84.907-38.187-84.907-85.333s37.76-85.333 84.907-85.333 85.333 38.187 85.333 85.333-38.187 85.333-85.333 85.333zM725.333 192c-47.147 0-84.907-38.187-84.907-85.333s37.76-85.333 84.907-85.333 85.333 38.187 85.333 85.333-38.187 85.333-85.333 85.333zM306.133 330.667c0 1.92 0.427 3.627 1.28 5.12l38.4 69.547h317.867c32 0 59.947 17.707 74.667 43.947l164.693 299.093-74.667 40.96h-0.213l-47.147-85.333-117.547-213.333h-299.307l-5.547 11.52-136.32 287.147-40.32 85.333h-139.307v-85.333h85.333l153.6-323.627-57.813-104.533c-6.613-12.373-10.453-26.24-10.453-41.173 0-47.147 38.187-85.333 85.333-85.333h512v85.333h-493.867c-5.973 0-10.667 4.693-10.667 10.667z" />
<glyph unicode="&#xe603;" glyph-name="add" d="M810.667 405.333h-256v-256h-85.333v256h-256v85.333h256v256h85.333v-256h256v-85.333z" />
<glyph unicode="&#xe604;" glyph-name="alarm-add" d="M336.213 815.36l-54.827 65.28-196.053-164.48 54.827-65.28 196.053 164.48zM938.667 715.947l-196.053 164.48-54.827-65.28 196.053-164.48 54.827 65.28zM511.787 789.333c-212.267 0-383.787-171.947-383.787-384s171.52-384 383.787-384 384.213 171.947 384.213 384-171.947 384-384.213 384zM512 106.667c-164.907 0-298.667 133.76-298.667 298.667s133.76 298.667 298.667 298.667 298.667-133.76 298.667-298.667-133.547-298.667-298.667-298.667zM554.667 576h-85.333v-128h-128v-85.333h128v-128h85.333v128h128v85.333h-128v128z" />
<glyph unicode="&#xe605;" glyph-name="alarm-off" d="M512 704c164.907 0 298.667-133.76 298.667-298.667 0-36.053-6.613-70.4-18.347-102.4l64.853-64.853c24.747 50.56 38.827 107.307 38.827 167.253 0 212.053-171.947 384-384.213 384-59.947 0-116.48-14.080-167.253-38.613l65.067-65.067c32 11.733 66.347 18.347 102.4 18.347zM938.667 715.947l-196.053 164.48-54.827-65.28 196.053-164.48 54.827 65.28zM124.587 862.080l-54.4-54.187 56.747-56.747-47.36-39.68 60.587-60.587 47.36 39.68 34.133-34.133c-58.24-67.413-93.653-155.093-93.653-251.093 0-212.053 171.52-384 383.787-384 96.213 0 183.893 35.627 251.093 93.867l93.867-93.867 54.187 54.4-786.347 786.347zM702.72 175.36c-51.84-42.88-118.187-68.693-190.72-68.693-164.907 0-298.667 133.76-298.667 298.667 0 72.533 25.813 138.88 68.693 190.72l420.693-420.693zM341.973 820.267l-60.587 60.587-36.267-30.507 60.587-60.587 36.267 30.507z" />
<glyph unicode="&#xe606;" glyph-name="alarm-on" d="M938.667 715.947l-196.053 164.48-54.827-65.28 196.053-164.48 54.827 65.28zM336.213 815.36l-54.827 65.28-196.053-164.48 54.827-65.28 196.053 164.48zM511.787 789.333c-212.267 0-383.787-171.947-383.787-384s171.52-384 383.787-384 384.213 171.947 384.213 384-171.947 384-384.213 384zM512 106.667c-164.907 0-298.667 133.76-298.667 298.667s133.76 298.667 298.667 298.667 298.667-133.76 298.667-298.667-133.547-298.667-298.667-298.667zM449.493 340.267l-90.453 90.453-45.227-45.227 135.68-135.68 256.213 256.213-45.227 45.227-210.987-210.987z" />
<glyph unicode="&#xe607;" glyph-name="alarm" d="M938.667 715.947l-196.053 164.48-54.827-65.28 196.053-164.48 54.827 65.28zM336.213 815.36l-54.827 65.28-196.053-164.48 54.827-65.28 196.053 164.48zM533.333 618.667h-64v-256l202.453-121.813 32.213 52.693-170.667 101.12v224zM511.787 789.333c-212.267 0-383.787-171.947-383.787-384s171.52-384 383.787-384 384.213 171.947 384.213 384-171.947 384-384.213 384zM512 106.667c-164.907 0-298.667 133.76-298.667 298.667s133.76 298.667 298.667 298.667 298.667-133.76 298.667-298.667-133.547-298.667-298.667-298.667z" />
<glyph unicode="&#xe608;" glyph-name="angry" d="M512-64c282.784 0 512 229.216 512 512s-229.216 512-512 512-512-229.216-512-512 229.216-512 512-512zM512 864c229.76 0 416-186.24 416-416s-186.24-416-416-416-416 186.24-416 416 186.24 416 416 416zM704.096 179.264c-39.168 65.152-110.528 108.736-192.096 108.736s-152.928-43.584-192.096-108.736l-82.336 49.408c55.968 93.056 157.92 155.36 274.432 155.36s218.464-62.272 274.432-155.36l-82.336-49.408zM767.040 679.744c4.288-17.152-6.144-34.528-23.296-38.816-17.632-4.448-38.528-12.128-56.928-21.344 10.656-11.424 17.184-26.752 17.184-43.616 0-35.36-28.64-64-64-64s-64 28.64-64 64c0 1.184 0.032 2.336 0.096 3.488 2.048 47.456 45.216 78.944 81.6 97.152 34.752 17.376 69.088 26.048 70.56 26.432 17.152 4.288 34.528-6.144 38.816-23.296zM256.96 679.744c4.288 17.152 21.664 27.584 38.816 23.296 1.44-0.352 35.808-9.056 70.56-26.432 36.384-18.208 79.552-49.696 81.6-97.152 0.064-1.152 0.096-2.304 0.096-3.488 0-35.36-28.64-64-64-64s-64 28.64-64 64c0 16.864 6.528 32.16 17.184 43.616-18.4 9.216-39.296 16.896-56.928 21.344-17.152 4.288-27.552 21.664-23.296 38.816z" />
<glyph unicode="&#xe609;" glyph-name="angry2" d="M512 960c-282.784 0-512-229.216-512-512s229.216-512 512-512 512 229.216 512 512-229.216 512-512 512zM576.096 579.488c2.048 47.456 45.216 78.944 81.6 97.152 34.752 17.376 69.12 26.048 70.56 26.432 17.152 4.288 34.528-6.144 38.816-23.296s-6.144-34.528-23.296-38.816c-17.632-4.448-38.528-12.128-56.928-21.344 10.656-11.424 17.184-26.752 17.184-43.616 0-35.36-28.64-64-64-64s-64 28.64-64 64c0 1.184 0.032 2.336 0.096 3.488zM256.96 679.744c4.288 17.152 21.664 27.584 38.816 23.296 1.44-0.352 35.808-9.056 70.56-26.432 36.384-18.208 79.552-49.696 81.6-97.152 0.064-1.152 0.096-2.304 0.096-3.488 0-35.36-28.64-64-64-64s-64 28.64-64 64c0 16.864 6.528 32.16 17.184 43.616-18.4 9.216-39.296 16.896-56.928 21.344-17.152 4.288-27.552 21.664-23.296 38.816zM704.096 179.264c-39.168 65.152-110.528 108.736-192.096 108.736s-152.928-43.584-192.096-108.736l-82.336 49.408c55.968 93.056 157.92 155.36 274.432 155.36s218.464-62.272 274.432-155.36l-82.336-49.408z" />
<glyph unicode="&#xe60a;" glyph-name="arrow-back" d="M853.333 490.667h-519.253l238.293 238.293-60.373 60.373-341.333-341.333 341.333-341.333 60.373 60.373-238.293 238.293h519.253v85.333z" />
<glyph unicode="&#xe60b;" glyph-name="arrow-drop-down" d="M298.667 533.333l213.333-213.333 213.333 213.333z" />
<glyph unicode="&#xe60c;" glyph-name="arrow-drop-up" d="M298.667 362.667l213.333 213.333 213.333-213.333z" />
<glyph unicode="&#xe60d;" glyph-name="arrow-forward" d="M512 789.333l-60.373-60.373 238.293-238.293h-519.253v-85.333h519.253l-238.293-238.293 60.373-60.373 341.333 341.333z" />
<glyph unicode="&#xe60e;" glyph-name="attach-file" d="M704 704v-490.667c0-94.293-76.373-170.667-170.667-170.667s-170.667 76.373-170.667 170.667v533.333c0 58.88 47.787 106.667 106.667 106.667s106.667-47.787 106.667-106.667v-448c0-23.467-18.987-42.667-42.667-42.667s-42.667 19.2-42.667 42.667v405.333h-64v-405.333c0-58.88 47.787-106.667 106.667-106.667s106.667 47.787 106.667 106.667v448c0 94.293-76.373 170.667-170.667 170.667s-170.667-76.373-170.667-170.667v-533.333c0-129.707 105.173-234.667 234.667-234.667s234.667 104.96 234.667 234.667v490.667h-64z" />
<glyph unicode="&#xe60f;" glyph-name="autorenew" d="M512 704v-128l170.667 170.667-170.667 170.667v-128c-188.587 0-341.333-152.747-341.333-341.333 0-66.987 19.627-129.067 52.907-181.76l62.293 62.293c-18.987 35.627-29.867 76.16-29.867 119.467 0 141.44 114.56 256 256 256zM800.427 629.76l-62.293-62.293c18.987-35.627 29.867-76.16 29.867-119.467 0-141.44-114.56-256-256-256v128l-170.667-170.667 170.667-170.667v128c188.587 0 341.333 152.747 341.333 341.333 0 66.987-19.627 129.067-52.907 181.76z" />
<glyph unicode="&#xe610;" glyph-name="backspace" d="M938.667 832h-640c-29.44 0-52.693-14.933-68.053-37.547l-230.613-346.24 230.613-346.24c15.36-22.613 38.613-37.973 68.053-37.973h640c47.147 0 85.333 38.187 85.333 85.333v597.333c0 47.147-38.187 85.333-85.333 85.333zM810.667 295.040l-60.373-60.373-152.96 152.96-152.96-152.96-60.373 60.373 152.96 152.96-152.96 152.96 60.373 60.373 152.96-152.96 152.96 152.96 60.373-60.373-152.96-152.96 152.96-152.96z" />
<glyph unicode="&#xe611;" glyph-name="baffled" d="M512-64c282.784 0 512 229.216 512 512s-229.216 512-512 512-512-229.216-512-512 229.216-512 512-512zM512 864c229.76 0 416-186.24 416-416s-186.24-416-416-416-416 186.24-416 416 186.24 416 416 416zM384 544c0-17.664-14.336-32-32-32s-32 14.336-32 32c0 17.664 14.336 32 32 32s32-14.336 32-32zM352 640c53.024 0 96-42.976 96-96s-42.976-96-96-96-96 42.976-96 96 42.976 96 96 96zM352 704c-88.224 0-160-71.776-160-160s71.776-160 160-160 160 71.776 160 160-71.776 160-160 160v0zM704 544c0-17.664-14.336-32-32-32s-32 14.336-32 32c0 17.664 14.336 32 32 32s32-14.336 32-32zM672 640c53.024 0 96-42.976 96-96s-42.976-96-96-96-96 42.976-96 96 42.976 96 96 96zM672 704c-88.224 0-160-71.776-160-160s71.776-160 160-160 160 71.776 160 160-71.776 160-160 160v0zM384 256h256v-64h-256v64z" />
<glyph unicode="&#xe612;" glyph-name="baffled2" d="M384 544c0-17.664-14.336-32-32-32s-32 14.336-32 32 14.336 32 32 32 32-14.336 32-32zM704 544c0-17.664-14.336-32-32-32s-32 14.336-32 32 14.336 32 32 32 32-14.336 32-32zM512 960c-282.784 0-512-229.216-512-512s229.216-512 512-512 512 229.216 512 512-229.216 512-512 512zM256 544c0 53.024 42.976 96 96 96s96-42.976 96-96-42.976-96-96-96-96 42.976-96 96zM640 192h-256v64h256v-64zM672 448c-53.024 0-96 42.976-96 96s42.976 96 96 96 96-42.976 96-96-42.976-96-96-96z" />
<glyph unicode="&#xe613;" glyph-name="bookmark-outline" d="M725.333 832h-426.667c-47.147 0-84.907-38.187-84.907-85.333l-0.427-682.667 298.667 128 298.667-128v682.667c0 47.147-38.187 85.333-85.333 85.333zM725.333 192l-213.333 92.8-213.333-92.8v554.667h426.667v-554.667z" />
<glyph unicode="&#xe614;" glyph-name="bookmark" d="M725.333 832h-426.667c-47.147 0-84.907-38.187-84.907-85.333l-0.427-682.667 298.667 128 298.667-128v682.667c0 47.147-38.187 85.333-85.333 85.333z" />
<glyph unicode="&#xe615;" glyph-name="cached" d="M810.667 618.667l-170.667-170.667h128c0-141.44-114.56-256-256-256-43.307 0-83.84 10.88-119.68 29.653l-62.293-62.293c52.907-33.067 114.987-52.693 181.973-52.693 188.587 0 341.333 152.747 341.333 341.333h128l-170.667 170.667zM256 448c0 141.44 114.56 256 256 256 43.307 0 83.84-10.88 119.68-29.653l62.293 62.293c-52.907 33.067-114.987 52.693-181.973 52.693-188.587 0-341.333-152.747-341.333-341.333h-128l170.667-170.667 170.667 170.667h-128z" />
<glyph unicode="&#xe616;" glyph-name="call-made" d="M384 746.667v-85.333h280.96l-494.293-494.293 60.373-60.373 494.293 494.293v-280.96h85.333v426.667z" />
<glyph unicode="&#xe617;" glyph-name="call-merge" d="M725.333 88.96l60.373 60.373-145.707 145.707-60.373-60.373 145.707-145.707zM320 618.667h149.333v-238.293l-231.040-231.040 60.373-60.373 256 256v273.707h149.333l-192 192-192-192z" />
<glyph unicode="&#xe618;" glyph-name="call-missed" d="M835.627 661.333l-323.627-323.627-238.293 238.293h195.627v85.333h-341.333v-341.333h85.333v195.627l298.667-298.667 384 384z" />
<glyph unicode="&#xe619;" glyph-name="call-received" d="M853.333 728.96l-60.373 60.373-494.293-494.293v280.96h-85.333v-426.667h426.667v85.333h-280.96z" />
<glyph unicode="&#xe61a;" glyph-name="call-split" d="M597.333 789.333l97.92-97.92-122.88-122.667 60.373-60.373 122.667 122.88 97.92-97.92v256zM426.667 789.333h-256v-256l97.92 97.92 200.747-200.96v-323.627h85.333v359.040l-225.92 225.707z" />
<glyph unicode="&#xe61b;" glyph-name="camera" d="M401.067 512l203.307 352.213c-29.653 6.613-60.587 10.453-92.373 10.453-102.4 0-196.053-36.053-269.653-96.213l156.373-270.72 2.347 4.267zM919.040 576c-39.253 124.8-134.4 224.427-255.787 270.507l-156.16-270.507h411.947zM930.133 533.333h-319.573l12.373-21.333 203.307-352c69.547 75.947 112.427 176.853 112.427 288 0 29.227-2.987 57.813-8.533 85.333zM364.16 448l-166.4 288c-69.547-75.947-112.427-176.853-112.427-288 0-29.227 2.987-57.813 8.533-85.333h319.573l-49.28 85.333zM104.96 320c39.253-124.8 134.4-224.427 255.787-270.507l156.16 270.507h-411.947zM585.813 320l-166.4-288.213c29.867-6.613 60.8-10.453 92.587-10.453 102.4 0 196.053 36.053 269.653 96.213l-156.373 270.72-39.467-68.267z" />
<glyph unicode="&#xe61c;" glyph-name="chevron-left" d="M657.707 643.627l-60.373 60.373-256-256 256-256 60.373 60.373-195.627 195.627z" />
<glyph unicode="&#xe61d;" glyph-name="chevron-right" d="M426.667 704l-60.373-60.373 195.627-195.627-195.627-195.627 60.373-60.373 256 256z" />
<glyph unicode="&#xe61e;" glyph-name="clear" d="M810.667 686.293l-60.373 60.373-238.293-238.293-238.293 238.293-60.373-60.373 238.293-238.293-238.293-238.293 60.373-60.373 238.293 238.293 238.293-238.293 60.373 60.373-238.293 238.293z" />
<glyph unicode="&#xe61f;" glyph-name="cloud-done" d="M825.813 531.84c-29.013 146.773-158.507 257.493-313.813 257.493-123.307 0-230.187-69.973-283.733-172.16-128.213-13.867-228.267-122.453-228.267-254.507 0-141.44 114.56-256 256-256h554.667c117.76 0 213.333 95.573 213.333 213.333 0 112.64-87.68 203.947-198.187 211.84zM426.667 234.667l-149.333 149.333 60.373 60.373 88.96-88.96 220.8 220.8 60.373-60.373-281.173-281.173z" />
<glyph unicode="&#xe620;" glyph-name="cloud-download" d="M825.813 531.84c-29.013 146.773-158.507 257.493-313.813 257.493-123.307 0-230.187-69.973-283.733-172.16-128.213-13.867-228.267-122.453-228.267-254.507 0-141.44 114.56-256 256-256h554.667c117.76 0 213.333 95.573 213.333 213.333 0 112.64-87.68 203.947-198.187 211.84zM725.333 405.333l-213.333-213.333-213.333 213.333h128v170.667h170.667v-170.667h128z" />
<glyph unicode="&#xe621;" glyph-name="cloud-off" d="M825.813 531.84c-29.013 146.773-158.507 257.493-313.813 257.493-62.933 0-121.6-18.56-171.093-49.92l62.293-62.293c32.64 16.853 69.547 26.88 108.8 26.88 129.707 0 234.667-104.96 234.667-234.667v-21.333h64c70.613 0 128-57.387 128-128 0-48.427-27.093-90.027-66.773-111.787l61.867-61.867c54.4 38.613 90.24 101.76 90.24 173.653 0 112.64-87.68 203.947-198.187 211.84zM128 734.933l117.333-116.907c-136.107-5.76-245.333-117.76-245.333-255.36 0-141.44 114.56-256 256-256h500.267l85.333-85.333 54.4 54.187-713.6 713.813-54.4-54.4zM329.6 533.333l341.333-341.333h-414.933c-94.293 0-170.667 76.373-170.667 170.667s76.373 170.667 170.667 170.667h73.6z" />
<glyph unicode="&#xe622;" glyph-name="cloud-queue" d="M825.813 531.84c-29.013 146.773-158.507 257.493-313.813 257.493-123.307 0-230.187-69.973-283.733-172.16-128.213-13.867-228.267-122.453-228.267-254.507 0-141.44 114.56-256 256-256h554.667c117.76 0 213.333 95.573 213.333 213.333 0 112.64-87.68 203.947-198.187 211.84zM810.667 192h-554.667c-94.293 0-170.667 76.373-170.667 170.667s76.373 170.667 170.667 170.667h30.293c27.947 98.347 118.187 170.667 225.707 170.667 129.707 0 234.667-104.96 234.667-234.667v-21.333h64c70.613 0 128-57.387 128-128s-57.387-128-128-128z" />
<glyph unicode="&#xe623;" glyph-name="cloud-upload" d="M825.813 531.84c-29.013 146.773-158.507 257.493-313.813 257.493-123.307 0-230.187-69.973-283.733-172.16-128.213-13.867-228.267-122.453-228.267-254.507 0-141.44 114.56-256 256-256h554.667c117.76 0 213.333 95.573 213.333 213.333 0 112.64-87.68 203.947-198.187 211.84zM597.333 405.333v-170.667h-170.667v170.667h-128l213.333 213.333 213.333-213.333h-128z" />
<glyph unicode="&#xe624;" glyph-name="cloud" d="M825.813 531.84c-29.013 146.773-158.507 257.493-313.813 257.493-123.307 0-230.187-69.973-283.733-172.16-128.213-13.867-228.267-122.453-228.267-254.507 0-141.44 114.56-256 256-256h554.667c117.76 0 213.333 95.573 213.333 213.333 0 112.64-87.68 203.947-198.187 211.84z" />
<glyph unicode="&#xe625;" glyph-name="coin-dollar" d="M480 896c-265.088 0-480-214.912-480-480s214.912-480 480-480c265.088 0 480 214.912 480 480s-214.912 480-480 480zM480 32c-212.064 0-384 171.936-384 384s171.936 384 384 384c212.064 0 384-171.936 384-384s-171.936-384-384-384zM512 448v128h128v64h-128v64h-64v-64h-128v-256h128v-128h-128v-64h128v-64h64v64h128v256h-128zM448 448h-64v128h64v-128zM576 256h-64v128h64v-128z" />
<glyph unicode="&#xe626;" glyph-name="coin-euro" d="M480 896c-265.088 0-480-214.912-480-480s214.912-480 480-480c265.088 0 480 214.912 480 480s-214.912 480-480 480zM480 32c-212.064 0-384 171.936-384 384s171.936 384 384 384c212.064 0 384-171.936 384-384s-171.936-384-384-384zM670.816 315.648c-15.264 8.896-34.848 3.712-43.744-11.584-17.248-29.664-49.088-48.096-83.072-48.096h-128c-41.728 0-77.28 26.752-90.496 64h154.496c17.664 0 32 14.336 32 32s-14.336 32-32 32h-160v64h160c17.664 0 32 14.336 32 32s-14.336 32-32 32h-154.496c13.216 37.248 48.768 64 90.496 64h128c33.984 0 65.824-18.432 83.072-48.096 8.896-15.264 28.48-20.448 43.744-11.552s20.448 28.48 11.552 43.744c-28.672 49.28-81.696 79.904-138.4 79.904h-128c-77.28 0-141.92-55.040-156.768-128h-35.232c-17.664 0-32-14.336-32-32s14.336-32 32-32h32v-64h-32c-17.664 0-32-14.336-32-32s14.336-32 32-32h35.232c14.88-72.928 79.52-128 156.768-128h128c56.704 0 109.728 30.624 138.4 79.904 8.896 15.264 3.712 34.88-11.584 43.744z" />
<glyph unicode="&#xe627;" glyph-name="coin-pound" d="M480 896c-265.088 0-480-214.912-480-480s214.912-480 480-480c265.088 0 480 214.912 480 480s-214.912 480-480 480zM480 32c-212.064 0-384 171.936-384 384s171.936 384 384 384c212.064 0 384-171.936 384-384s-171.936-384-384-384zM608 256h-224v128h96c17.664 0 32 14.336 32 32s-14.336 32-32 32h-96v32c0 52.928 43.072 96 96 96 34.176 0 66.048-18.4 83.168-48.032 8.864-15.296 28.416-20.512 43.712-11.68s20.512 28.416 11.68 43.712c-28.544 49.344-81.632 79.968-138.592 79.968-88.224 0-160-71.776-160-160v-32h-32c-17.664 0-32-14.336-32-32s14.336-32 32-32h32v-192h288c17.664 0 32 14.336 32 32s-14.336 32-32 32z" />
<glyph unicode="&#xe628;" glyph-name="coin-yen" d="M480 896c-265.088 0-480-214.912-480-480s214.912-480 480-480c265.088 0 480 214.912 480 480s-214.912 480-480 480zM480 32c-212.064 0-384 171.936-384 384s171.936 384 384 384c212.064 0 384-171.936 384-384s-171.936-384-384-384zM608 384c17.664 0 32 14.336 32 32s-14.336 32-32 32h-68.192l94.816 142.24c9.792 14.72 5.824 34.56-8.864 44.384s-34.56 5.824-44.384-8.864l-101.376-152.064-101.376 152.064c-9.792 14.72-29.664 18.688-44.384 8.864s-18.688-29.664-8.864-44.384l94.848-142.24h-68.224c-17.664 0-32-14.336-32-32s14.336-32 32-32h96v-64h-96c-17.664 0-32-14.336-32-32s14.336-32 32-32h96v-96c0-17.664 14.336-32 32-32s32 14.336 32 32v96h96c17.664 0 32 14.336 32 32s-14.336 32-32 32h-96v64h96z" />
<glyph unicode="&#xe629;" glyph-name="confused" d="M512-64c282.784 0 512 229.216 512 512s-229.216 512-512 512-512-229.216-512-512 229.216-512 512-512zM512 864c229.76 0 416-186.24 416-416s-186.24-416-416-416-416 186.24-416 416 186.24 416 416 416zM256 640c0 35.36 28.64 64 64 64s64-28.64 64-64c0-35.36-28.64-64-64-64s-64 28.64-64 64zM640 640c0 35.36 28.64 64 64 64s64-28.64 64-64c0-35.36-28.64-64-64-64s-64 28.64-64 64zM726.112 320h64.864c9.248-72.512-32.448-144.544-103.968-170.56-82.912-30.176-174.912 12.704-205.088 95.616-18.112 49.76-73.312 75.488-123.040 57.376-45.568-16.576-70.944-64.288-60.992-110.432h-64.864c-9.248 72.512 32.448 144.544 103.968 170.56 82.912 30.176 174.912-12.704 205.088-95.616 18.112-49.76 73.312-75.488 123.040-57.376 45.568 16.576 70.944 64.288 60.992 110.432z" />
<glyph unicode="&#xe62a;" glyph-name="confused2" d="M512 960c-282.784 0-512-229.216-512-512s229.216-512 512-512c282.784 0 512 229.216 512 512s-229.216 512-512 512zM704 704c35.36 0 64-28.64 64-64s-28.64-64-64-64-64 28.64-64 64c0 35.36 28.64 64 64 64zM320 704c35.36 0 64-28.64 64-64s-28.64-64-64-64-64 28.64-64 64c0 35.36 28.64 64 64 64zM687.008 149.44c-82.912-30.176-174.912 12.704-205.088 95.616-18.112 49.728-73.312 75.488-123.040 57.376-45.568-16.576-70.944-64.288-60.992-110.432h-64.864c-9.248 72.512 32.448 144.544 103.968 170.56 82.912 30.176 174.912-12.704 205.088-95.616 18.112-49.728 73.312-75.488 123.040-57.376 45.568 16.576 70.944 64.288 60.992 110.432h64.864c9.248-72.512-32.448-144.544-103.968-170.56z" />
<glyph unicode="&#xe62b;" glyph-name="cool" d="M512-64c282.784 0 512 229.216 512 512s-229.216 512-512 512-512-229.216-512-512 229.216-512 512-512zM512 864c229.76 0 416-186.24 416-416s-186.24-416-416-416-416 186.24-416 416 186.24 416 416 416zM800 704c17.6 0 32-14.4 32-32v-96c0-35.2-28.8-64-64-64h-128c-35.2 0-64 28.8-64 64h-128c0-35.2-28.8-64-64-64h-128c-35.2 0-64 28.8-64 64v96c0 17.6 14.4 32 32 32h192c17.6 0 32-14.4 32-32v-32h128v32c0 17.6 14.4 32 32 32h192zM512 192c93.216 0 174.784 49.824 219.552 124.288l54.88-32.928c-55.968-93.056-157.92-155.36-274.432-155.36-48.448 0-94.4 10.784-135.552 30.080l33.152 55.264c31.36-13.728 65.952-21.376 102.368-21.376z" />
<glyph unicode="&#xe62c;" glyph-name="cool2" d="M512 960c-282.784 0-512-229.216-512-512s229.216-512 512-512c282.784 0 512 229.216 512 512s-229.216 512-512 512zM512 128c-48.448 0-94.4 10.784-135.552 30.080l33.152 55.264c31.36-13.696 65.952-21.344 102.368-21.344 93.216 0 174.784 49.824 219.552 124.288l54.88-32.928c-55.968-93.056-157.92-155.36-274.432-155.36zM832 576c0-35.2-28.8-64-64-64h-128c-35.2 0-64 28.8-64 64h-128c0-35.2-28.8-64-64-64h-128c-35.2 0-64 28.8-64 64v96c0 17.6 14.4 32 32 32h192c17.6 0 32-14.4 32-32v-32h128v32c0 17.6 14.4 32 32 32h192c17.6 0 32-14.4 32-32v-96z" />
<glyph unicode="&#xe62d;" glyph-name="crop-original" d="M810.667 832h-597.333c-47.147 0-85.333-38.187-85.333-85.333v-597.333c0-47.147 38.187-85.333 85.333-85.333h597.333c47.147 0 85.333 38.187 85.333 85.333v597.333c0 47.147-38.187 85.333-85.333 85.333zM810.667 149.333h-597.333v597.333h597.333v-597.333zM595.84 435.84l-117.333-151.040-83.84 100.693-117.333-150.827h469.333l-150.827 201.173z" />
<glyph unicode="&#xe62e;" glyph-name="crying" d="M512-64c282.784 0 512 229.216 512 512s-229.216 512-512 512-512-229.216-512-512 229.216-512 512-512zM512 864c229.76 0 416-186.24 416-416s-186.24-416-416-416-416 186.24-416 416 186.24 416 416 416zM800 576h-128c-17.664 0-32 14.336-32 32s14.336 32 32 32h128c17.664 0 32-14.336 32-32s-14.336-32-32-32zM352 576h-128c-17.664 0-32 14.336-32 32s14.336 32 32 32h128c17.664 0 32-14.336 32-32s-14.336-32-32-32zM608 104c-8.192 0-16.384 3.136-22.624 9.376-4.576 4.576-29.408 14.624-73.376 14.624s-68.8-10.048-73.376-14.624c-12.48-12.48-32.768-12.48-45.248 0s-12.512 32.768 0 45.248c30.112 30.112 92.992 33.376 118.624 33.376s88.512-3.264 118.624-33.376c12.512-12.48 12.512-32.768 0-45.248-6.24-6.24-14.432-9.376-22.624-9.376zM736 384c-17.664 0-32 14.336-32 32v64c0 17.664 14.336 32 32 32s32-14.336 32-32v-64c0-17.664-14.336-32-32-32zM736 192c-17.664 0-32 14.336-32 32v64c0 17.664 14.336 32 32 32s32-14.336 32-32v-64c0-17.664-14.336-32-32-32zM288 384c-17.664 0-32 14.336-32 32v64c0 17.664 14.336 32 32 32s32-14.336 32-32v-64c0-17.664-14.336-32-32-32zM288 192c-17.664 0-32 14.336-32 32v64c0 17.664 14.336 32 32 32s32-14.336 32-32v-64c0-17.664-14.336-32-32-32z" />
<glyph unicode="&#xe62f;" glyph-name="crying2" d="M512 960c-282.784 0-512-229.216-512-512s229.216-512 512-512 512 229.216 512 512-229.216 512-512 512zM320 224c0-17.664-14.336-32-32-32s-32 14.336-32 32v64c0 17.664 14.336 32 32 32s32-14.336 32-32v-64zM320 416c0-17.664-14.336-32-32-32s-32 14.336-32 32v64c0 17.664 14.336 32 32 32s32-14.336 32-32v-64zM352 576h-128c-17.664 0-32 14.336-32 32s14.336 32 32 32h128c17.664 0 32-14.336 32-32s-14.336-32-32-32zM630.624 113.376c-6.24-6.24-14.432-9.376-22.624-9.376s-16.384 3.136-22.624 9.376c-4.576 4.576-29.408 14.624-73.376 14.624s-68.8-10.048-73.376-14.624c-12.48-12.48-32.768-12.48-45.248 0s-12.512 32.768 0 45.248c30.112 30.112 92.992 33.376 118.624 33.376s88.512-3.264 118.624-33.376c12.512-12.48 12.512-32.768 0-45.248zM768 224c0-17.664-14.336-32-32-32s-32 14.336-32 32v64c0 17.664 14.336 32 32 32s32-14.336 32-32v-64zM768 416c0-17.664-14.336-32-32-32s-32 14.336-32 32v64c0 17.664 14.336 32 32 32s32-14.336 32-32v-64zM800 576h-128c-17.664 0-32 14.336-32 32s14.336 32 32 32h128c17.664 0 32-14.336 32-32s-14.336-32-32-32z" />
<glyph unicode="&#xe630;" glyph-name="delete" d="M256 149.333c0-47.147 38.187-85.333 85.333-85.333h341.333c47.147 0 85.333 38.187 85.333 85.333v512h-512v-512zM810.667 789.333h-149.333l-42.667 42.667h-213.333l-42.667-42.667h-149.333v-85.333h597.333v85.333z" />
<glyph unicode="&#xe631;" glyph-name="devices" d="M170.667 704h768v85.333h-768c-47.147 0-85.333-38.187-85.333-85.333v-469.333h-85.333v-128h597.333v128h-426.667v469.333zM981.333 618.667h-256c-23.467 0-42.667-19.2-42.667-42.667v-426.667c0-23.467 19.2-42.667 42.667-42.667h256c23.467 0 42.667 19.2 42.667 42.667v426.667c0 23.467-19.2 42.667-42.667 42.667zM938.667 234.667h-170.667v298.667h170.667v-298.667z" />
<glyph unicode="&#xe632;" glyph-name="display" d="M0 896v-640h1024v640h-1024zM960 320h-896v512h896v-512zM672 192h-320l-32-128-64-64h512l-64 64z" />
<glyph unicode="&#xe633;" glyph-name="dnd-forwardslash" d="M512 874.667c-234.667 0-426.667-192-426.667-426.667s192-426.667 426.667-426.667 426.667 192 426.667 426.667-192 426.667-426.667 426.667zM170.667 448c0 187.733 153.6 341.333 341.333 341.333 78.933 0 151.467-27.733 209.067-72.533l-477.867-477.867c-44.8 57.6-72.533 130.133-72.533 209.067zM512 106.667c-78.933 0-151.467 27.733-209.067 72.533l477.867 477.867c44.8-57.6 72.533-130.133 72.533-209.067 0-187.733-153.6-341.333-341.333-341.333z" />
<glyph unicode="&#xe634;" glyph-name="do-not-disturb" d="M512 874.667c-235.733 0-426.667-190.933-426.667-426.667s190.933-426.667 426.667-426.667 426.667 190.933 426.667 426.667-190.933 426.667-426.667 426.667zM512 106.667c-188.587 0-341.333 152.747-341.333 341.333 0 78.933 27.093 151.253 71.893 209.067l478.507-478.507c-57.813-44.8-130.133-71.893-209.067-71.893zM781.44 238.933l-478.507 478.507c57.813 44.8 130.133 71.893 209.067 71.893 188.587 0 341.333-152.747 341.333-341.333 0-78.933-27.093-151.253-71.893-209.067z" />
<glyph unicode="&#xe635;" glyph-name="done-all" d="M768 661.333l-60.373 60.373-270.507-270.72 60.373-60.373 270.507 270.72zM949.12 721.707l-451.84-451.627-177.92 177.92-60.373-60.373 238.293-238.293 512 512-60.16 60.373zM17.707 387.627l238.293-238.293 60.373 60.373-238.293 238.293-60.373-60.373z" />
<glyph unicode="&#xe636;" glyph-name="done" d="M384 270.080l-177.92 177.92-60.373-60.373 238.293-238.293 512 512-60.373 60.373z" />
<glyph unicode="&#xe637;" glyph-name="dribbble" d="M512-64c-282.304 0-512 229.696-512 512s229.696 512 512 512c282.336 0 512-229.696 512-512s-229.664-512-512-512zM943.808 377.92c-14.976 4.736-135.36 40.64-272.416 18.688 57.216-157.184 80.48-285.216 84.96-311.808 98.112 66.336 167.968 171.424 187.456 293.12zM682.816 44.768c-6.496 38.368-31.904 172.096-93.312 331.648-0.96-0.32-1.92-0.64-2.88-0.96-246.656-85.952-335.232-257.024-343.072-273.088 74.144-57.824 167.328-92.32 268.448-92.32 60.576 0 118.304 12.384 170.816 34.752zM187.104 154.912c9.92 16.96 129.92 215.68 355.488 288.608 5.696 1.856 11.456 3.584 17.248 5.184-10.976 24.832-22.944 49.728-35.456 74.208-218.4-65.376-430.336-62.624-449.472-62.24-0.128-4.448-0.224-8.896-0.224-13.376 0-112.32 42.592-214.88 112.416-292.416zM83.904 536.896c19.552-0.256 199.744-1.056 404.288 53.28-72.448 128.8-150.624 237.12-162.144 252.928-122.336-57.696-213.792-170.496-242.144-306.208zM409.504 872.512c12.096-16.192 91.52-124.352 163.168-256 155.52 58.272 221.344 146.784 229.216 157.984-77.216 68.512-178.784 110.208-289.888 110.208-35.296 0-69.6-4.224-102.496-12.16zM850.528 723.904c-9.216-12.48-82.496-106.432-244.192-172.448 10.176-20.832 19.936-42.016 29.024-63.328 3.232-7.552 6.368-15.072 9.408-22.56 145.504 18.304 290.112-11.040 304.512-14.080-0.96 103.232-37.856 198.016-98.752 272.416z" />
<glyph unicode="&#xe638;" glyph-name="dribbble3" d="M765.664 733.664c-6.88-9.792-64.48-87.232-200.544-138.24-62.72 115.2-132.192 209.856-142.784 224 28.768 6.944 58.784 10.624 89.664 10.624 97.216 0 186.080-36.48 253.664-96.416zM538.752 444.064c-197.344-63.808-302.368-237.664-311.040-252.512-61.12 67.84-98.368 157.568-98.368 255.872 0 3.904 0.064 7.808 0.192 11.712 16.736-0.352 202.176-2.72 393.28 54.464 10.944-21.44 21.408-43.2 31.040-64.928-5.056-1.44-10.080-2.944-15.072-4.544zM512 960c-282.784 0-512-229.216-512-512s229.216-512 512-512 512 229.216 512 512-229.216 512-512 512zM512 0c-247.040 0-448 200.96-448 448s200.96 448 448 448c247.040 0 448-200.96 448-448s-200.96-448-448-448zM619.904 483.104c-7.936 18.656-16.48 37.184-25.376 55.424 141.472 57.76 205.6 139.968 213.664 150.88 53.28-65.12 85.568-148.064 86.4-238.368-12.608 2.656-139.136 28.32-266.464 12.32-2.688 6.56-5.44 13.12-8.256 19.744zM491.2 572.416c-179.008-47.52-336.64-46.848-353.76-46.624 24.8 118.752 104.832 217.44 211.904 267.936 10.080-13.824 78.464-108.608 141.888-221.312zM577.312 384.512c0.832 0.288 1.664 0.576 2.528 0.864 53.728-139.616 75.936-256.608 81.632-290.176-45.952-19.552-96.48-30.4-149.472-30.4-88.448 0-170.016 30.176-234.88 80.768 6.88 14.080 84.352 163.744 300.192 238.976zM651.456 403.040c119.904 19.2 225.28-12.224 238.368-16.352-17.056-106.464-78.176-198.432-164.032-256.48-3.936 23.264-24.288 135.296-74.336 272.832z" />
<glyph unicode="&#xe639;" glyph-name="email" d="M853.333 789.333h-682.667c-47.147 0-84.907-38.187-84.907-85.333l-0.427-512c0-47.147 38.187-85.333 85.333-85.333h682.667c47.147 0 85.333 38.187 85.333 85.333v512c0 47.147-38.187 85.333-85.333 85.333zM853.333 618.667l-341.333-213.333-341.333 213.333v85.333l341.333-213.333 341.333 213.333v-85.333z" />
<glyph unicode="&#xe63a;" glyph-name="embed2" horiz-adv-x="1280" d="M832 224l96-96 320 320-320 320-96-96 224-224zM448 672l-96 96-320-320 320-320 96 96-224 224zM701.312 809.472l69.472-18.944-192-704.032-69.472 18.944 192 704.032z" />
<glyph unicode="&#xe63b;" glyph-name="equalizer" d="M426.667 106.667h170.667v682.667h-170.667v-682.667zM170.667 106.667h170.667v341.333h-170.667v-341.333zM682.667 576v-469.333h170.667v469.333h-170.667z" />
<glyph unicode="&#xe63c;" glyph-name="error" d="M512 874.667c-235.52 0-426.667-190.933-426.667-426.667s191.147-426.667 426.667-426.667 426.667 190.933 426.667 426.667-191.147 426.667-426.667 426.667zM554.667 234.667h-85.333v85.333h85.333v-85.333zM554.667 405.333h-85.333v256h85.333v-256z" />
<glyph unicode="&#xe63d;" glyph-name="event-available" d="M705.28 488.107l-45.227 45.227-208.213-208.213-90.453 90.453-45.227-45.227 135.68-135.68 253.44 253.44zM810.667 832h-42.667v85.333h-85.333v-85.333h-341.333v85.333h-85.333v-85.333h-42.667c-47.147 0-84.907-38.187-84.907-85.333l-0.427-597.333c0-47.147 38.187-85.333 85.333-85.333h597.333c47.147 0 85.333 38.187 85.333 85.333v597.333c0 47.147-38.187 85.333-85.333 85.333zM810.667 149.333h-597.333v469.333h597.333v-469.333z" />
<glyph unicode="&#xe63e;" glyph-name="event-busy" d="M397.227 234.667l104.107 104.107 104.107-104.107 45.227 45.227-104.107 104.107 104.107 104.107-45.227 45.227-104.107-104.107-104.107 104.107-45.227-45.227 104.107-104.107-104.107-104.107 45.227-45.227zM810.667 832h-42.667v85.333h-85.333v-85.333h-341.333v85.333h-85.333v-85.333h-42.667c-47.147 0-84.907-38.187-84.907-85.333l-0.427-597.333c0-47.147 38.187-85.333 85.333-85.333h597.333c47.147 0 85.333 38.187 85.333 85.333v597.333c0 47.147-38.187 85.333-85.333 85.333zM810.667 149.333h-597.333v469.333h597.333v-469.333z" />
<glyph unicode="&#xe63f;" glyph-name="event" d="M725.333 448h-213.333v-213.333h213.333v213.333zM682.667 917.333v-85.333h-341.333v85.333h-85.333v-85.333h-42.667c-47.147 0-84.907-38.187-84.907-85.333l-0.427-597.333c0-47.147 38.187-85.333 85.333-85.333h597.333c47.147 0 85.333 38.187 85.333 85.333v597.333c0 47.147-38.187 85.333-85.333 85.333h-42.667v85.333h-85.333zM810.667 149.333h-597.333v469.333h597.333v-469.333z" />
<glyph unicode="&#xe640;" glyph-name="evil" d="M640 512c-35.36 0-64 28.64-64 64 0 1.184 0.032 2.336 0.096 3.488 2.048 47.456 45.216 78.944 81.6 97.152 34.752 17.376 69.088 26.048 70.56 26.432 17.152 4.288 34.528-6.144 38.816-23.296s-6.144-34.528-23.296-38.816c-17.632-4.448-38.528-12.128-56.928-21.344 10.656-11.424 17.184-26.752 17.184-43.616 0-35.36-28.64-64-64-64zM280.256 640.96c-17.152 4.288-27.584 21.664-23.296 38.816s21.664 27.584 38.816 23.296c1.44-0.352 35.808-9.056 70.56-26.432 36.384-18.176 79.552-49.696 81.6-97.152 0.064-1.152 0.096-2.304 0.096-3.488 0-35.36-28.64-64-64-64s-64 28.64-64 64c0 16.864 6.528 32.16 17.184 43.616-18.4 9.216-39.328 16.896-56.928 21.344zM512 224c81.568 0 152.928 43.584 192.096 108.736l82.336-49.408c-55.968-93.056-157.92-155.36-274.432-155.36s-218.464 62.272-274.432 155.36l82.336 49.408c39.168-65.152 110.528-108.736 192.096-108.736zM1024 896c0 45.504-9.536 88.8-26.656 128-33.568-76.832-96.448-137.92-174.496-169.184-86.208 65.952-193.952 105.184-310.848 105.184s-224.672-39.232-310.848-105.184c-78.048 31.232-140.928 92.352-174.496 169.184-17.12-39.2-26.656-82.496-26.656-128 0-73.568 24.864-141.344 66.592-195.392-42.368-74.528-66.592-160.736-66.592-252.608 0-282.784 229.216-512 512-512s512 229.216 512 512c0 91.872-24.224 178.080-66.592 252.608 41.728 54.048 66.592 121.792 66.592 195.392zM512 32c-229.76 0-416 186.24-416 416s186.24 416 416 416 416-186.24 416-416-186.24-416-416-416z" />
<glyph unicode="&#xe641;" glyph-name="exit-to-app" d="M430.293 295.040l60.373-60.373 213.333 213.333-213.333 213.333-60.373-60.373 110.293-110.293h-412.587v-85.333h412.587l-110.293-110.293zM810.667 832h-597.333c-47.147 0-85.333-38.187-85.333-85.333v-170.667h85.333v170.667h597.333v-597.333h-597.333v170.667h-85.333v-170.667c0-47.147 38.187-85.333 85.333-85.333h597.333c47.147 0 85.333 38.187 85.333 85.333v597.333c0 47.147-38.187 85.333-85.333 85.333z" />
<glyph unicode="&#xe642;" glyph-name="expand-less" d="M512 618.667l-256-256 60.373-60.373 195.627 195.627 195.627-195.627 60.373 60.373z" />
<glyph unicode="&#xe643;" glyph-name="expand-more" d="M707.627 593.707l-195.627-195.627-195.627 195.627-60.373-60.373 256-256 256 256z" />
<glyph unicode="&#xe644;" glyph-name="exposure-minus-1" d="M170.667 490.667v-85.333h341.333v85.333h-341.333zM810.667 192h-85.333v453.333l-128-43.733v72.533l200.533 72.533h12.8v-554.667z" />
<glyph unicode="&#xe645;" glyph-name="exposure-plus-1" d="M426.667 661.333h-85.333v-170.667h-170.667v-85.333h170.667v-170.667h85.333v170.667h170.667v85.333h-170.667v170.667zM853.333 192h-85.333v453.333l-128-43.733v72.533l200.533 72.533h12.8v-554.667z" />
<glyph unicode="&#xe646;" glyph-name="facebook" d="M672 768c-88.352 0-160-71.648-160-160v-96h-128v-128h128v-448h128v448h144l32 128h-176v96c0 17.664 14.336 32 32 32h160v128h-160z" />
<glyph unicode="&#xe647;" glyph-name="facebook3" d="M512 960c-282.784 0-512-229.216-512-512s229.216-512 512-512v384h-128v128h128v96c0 88.352 71.648 160 160 160h160v-128h-160c-17.664 0-32-14.336-32-32v-96h176l-32-128h-144v-367.872c220.832 56.832 384 257.312 384 495.872 0 282.784-229.216 512-512 512z" />
<glyph unicode="&#xe648;" glyph-name="favorite-outline" d="M704 832c-74.24 0-145.493-34.56-192-88.96-46.507 54.4-117.76 88.96-192 88.96-131.627 0-234.667-103.040-234.667-234.667 0-161.067 145.067-292.693 364.8-492.16l61.867-56.107 61.867 56.107c219.733 199.467 364.8 331.093 364.8 492.16 0 131.627-103.040 234.667-234.667 234.667zM516.48 168.32l-4.48-4.053-4.48 4.053c-202.88 184.107-336.853 305.707-336.853 429.013 0 85.12 64.213 149.333 149.333 149.333 65.707 0 129.707-42.453 152.107-100.693h79.573c22.613 58.24 86.613 100.693 152.32 100.693 85.12 0 149.333-64.213 149.333-149.333 0-123.307-133.973-244.907-336.853-429.013z" />
<glyph unicode="&#xe649;" glyph-name="favorite" d="M512 49.067l-61.867 56.107c-219.733 199.467-364.8 331.093-364.8 492.16 0 131.627 103.040 234.667 234.667 234.667 74.24 0 145.493-34.56 192-88.96 46.507 54.4 117.76 88.96 192 88.96 131.627 0 234.667-103.040 234.667-234.667 0-161.067-145.067-292.693-364.8-492.16l-61.867-56.107z" />
<glyph unicode="&#xe64a;" glyph-name="file-download" d="M810.667 576h-170.667v256h-256v-256h-170.667l298.667-298.667 298.667 298.667zM213.333 192v-85.333h597.333v85.333h-597.333z" />
<glyph unicode="&#xe64b;" glyph-name="file-upload" d="M384 277.333h256v256h170.667l-298.667 298.667-298.667-298.667h170.667zM213.333 192h597.333v-85.333h-597.333z" />
<glyph unicode="&#xe64c;" glyph-name="film" d="M0 832v-768h1024v768h-1024zM192 128h-128v128h128v-128zM192 384h-128v128h128v-128zM192 640h-128v128h128v-128zM768 128h-512v640h512v-640zM960 128h-128v128h128v-128zM960 384h-128v128h128v-128zM960 640h-128v128h128v-128zM384 640v-384l256 192z" />
<glyph unicode="&#xe64d;" glyph-name="filter-drama" d="M825.813 531.84c-29.013 146.773-158.507 257.493-313.813 257.493-123.307 0-229.973-69.973-283.52-172.16-128.427-13.653-228.48-122.453-228.48-254.507 0-141.44 114.56-256 256-256h554.667c117.76 0 213.333 95.573 213.333 213.333 0 112.64-87.467 203.947-198.187 211.84zM810.667 192h-554.667c-94.080 0-170.667 76.587-170.667 170.667s76.587 170.667 170.667 170.667 170.667-76.587 170.667-170.667h85.333c0 117.76-79.573 216.533-187.733 246.4 42.88 57.387 110.933 94.933 187.733 94.933 129.493 0 234.667-105.173 234.667-234.667v-21.333h64c70.613 0 128-57.387 128-128s-57.387-128-128-128z" />
<glyph unicode="&#xe64e;" glyph-name="flag" d="M614.4 704l-17.067 85.333h-384v-725.333h85.333v298.667h238.933l17.067-85.333h298.667v426.667z" />
<glyph unicode="&#xe64f;" glyph-name="flash-auto" d="M128 874.667v-512h128v-384l298.667 512h-170.667l170.667 384h-426.667zM810.667 874.667h-85.333l-136.533-384h81.067l29.867 85.333h136.533l29.867-85.333h81.067l-136.533 384zM718.933 633.6l49.067 155.733 49.067-155.733h-98.133z" />
<glyph unicode="&#xe650;" glyph-name="flash-off" d="M139.733 832l-54.4-54.4 213.333-213.333v-158.933h128v-384l152.96 262.187 176.64-176.853 54.4 54.187-670.933 671.147zM725.333 533.333h-170.667l170.667 341.333h-426.667v-93.013l360.96-360.96 65.707 112.64z" />
<glyph unicode="&#xe651;" glyph-name="flash-on" d="M298.667 874.667v-469.333h128v-384l298.667 512h-170.667l170.667 341.333z" />
<glyph unicode="&#xe652;" glyph-name="format-align-center" d="M298.667 320v-85.333h426.667v85.333h-426.667zM128 64h768v85.333h-768v-85.333zM128 405.333h768v85.333h-768v-85.333zM298.667 661.333v-85.333h426.667v85.333h-426.667zM128 832v-85.333h768v85.333h-768z" />
<glyph unicode="&#xe653;" glyph-name="format-align-justify" d="M128 64h768v85.333h-768v-85.333zM128 234.667h768v85.333h-768v-85.333zM128 405.333h768v85.333h-768v-85.333zM128 576h768v85.333h-768v-85.333zM128 832v-85.333h768v85.333h-768z" />
<glyph unicode="&#xe654;" glyph-name="format-align-left" d="M640 320h-512v-85.333h512v85.333zM640 661.333h-512v-85.333h512v85.333zM128 405.333h768v85.333h-768v-85.333zM128 64h768v85.333h-768v-85.333zM128 832v-85.333h768v85.333h-768z" />
<glyph unicode="&#xe655;" glyph-name="format-align-right" d="M128 64h768v85.333h-768v-85.333zM384 234.667h512v85.333h-512v-85.333zM128 405.333h768v85.333h-768v-85.333zM384 576h512v85.333h-512v-85.333zM128 832v-85.333h768v85.333h-768z" />
<glyph unicode="&#xe656;" glyph-name="format-bold" d="M665.6 499.627c41.173 28.8 70.4 75.307 70.4 119.040 0 96.213-74.453 170.667-170.667 170.667h-266.667v-597.333h300.373c89.387 0 158.293 72.533 158.293 161.707 0 64.853-36.907 120.107-91.733 145.92zM426.667 682.667h128c35.413 0 64-28.587 64-64s-28.587-64-64-64h-128v128zM576 298.667h-149.333v128h149.333c35.413 0 64-28.587 64-64s-28.587-64-64-64z" />
<glyph unicode="&#xe657;" glyph-name="format-clear" d="M139.52 746.667l-54.187-54.4 297.387-297.387-105.387-245.547h128l66.987 156.16 241.493-241.493 54.187 54.4-628.48 628.267zM256 746.667v-7.68l120.32-120.32h102.187l-30.72-71.467 89.6-89.6 69.12 161.067h246.827v128h-597.333z" />
<glyph unicode="&#xe658;" glyph-name="format-color-fill" d="M706.56 578.56l-381.44 381.44-60.373-60.373 101.547-101.547-219.52-219.52c-24.96-24.96-24.96-65.493 0-90.453l234.667-234.667c12.373-12.587 28.8-18.773 45.227-18.773s32.853 6.187 45.227 18.773l234.667 234.667c24.96 24.96 24.96 65.493 0 90.453zM222.080 533.333l204.587 204.373 204.587-204.373h-409.173zM810.667 469.333s-85.333-92.373-85.333-149.333c0-47.147 38.187-85.333 85.333-85.333s85.333 38.187 85.333 85.333c0 56.96-85.333 149.333-85.333 149.333zM0 106.667h1024v-170.667h-1024z" />
<glyph unicode="&#xe659;" glyph-name="format-color-reset" d="M768 362.667c0 170.667-256 460.8-256 460.8s-56.747-64.427-116.693-150.187l366.293-366.293c4.053 17.92 6.4 36.48 6.4 55.68zM730.453 229.547l-505.6 505.6-54.187-54.4 141.653-141.653c-32.64-62.293-56.32-124.8-56.32-176.427 0-141.44 114.56-256 256-256 64.853 0 123.733 24.32 168.747 64l112.427-112.427 54.187 54.4-116.907 116.907z" />
<glyph unicode="&#xe65a;" glyph-name="format-color-text" d="M0 106.667h1024v-170.667h-1024zM469.333 832l-234.667-597.333h96l48 128h266.667l48-128h96l-234.667 597.333h-85.333zM410.667 448l101.333 270.293 101.333-270.293h-202.667z" />
<glyph unicode="&#xe65b;" glyph-name="format-indent-decrease" d="M469.333 234.667h426.667v85.333h-426.667v-85.333zM128 448l170.667-170.667v341.333l-170.667-170.667zM128 64h768v85.333h-768v-85.333zM128 832v-85.333h768v85.333h-768zM469.333 576h426.667v85.333h-426.667v-85.333zM469.333 405.333h426.667v85.333h-426.667v-85.333z" />
<glyph unicode="&#xe65c;" glyph-name="format-indent-increase" d="M128 64h768v85.333h-768v-85.333zM128 618.667v-341.333l170.667 170.667-170.667 170.667zM469.333 234.667h426.667v85.333h-426.667v-85.333zM128 832v-85.333h768v85.333h-768zM469.333 576h426.667v85.333h-426.667v-85.333zM469.333 405.333h426.667v85.333h-426.667v-85.333z" />
<glyph unicode="&#xe65d;" glyph-name="format-ital" d="M426.667 789.333v-128h94.507l-146.347-341.333h-118.827v-128h341.333v128h-94.507l146.347 341.333h118.827v128z" />
<glyph unicode="&#xe65e;" glyph-name="format-line-spacing" d="M256 661.333h106.667l-149.333 149.333-149.333-149.333h106.667v-426.667h-106.667l149.333-149.333 149.333 149.333h-106.667v426.667zM426.667 746.667v-85.333h512v85.333h-512zM426.667 149.333h512v85.333h-512v-85.333zM426.667 405.333h512v85.333h-512v-85.333z" />
<glyph unicode="&#xe65f;" glyph-name="format-list-bulleted" d="M170.667 512c-35.413 0-64-28.587-64-64s28.587-64 64-64 64 28.587 64 64-28.587 64-64 64zM170.667 768c-35.413 0-64-28.587-64-64s28.587-64 64-64 64 28.587 64 64-28.587 64-64 64zM170.667 248.96c-31.36 0-56.96-25.387-56.96-56.96s25.6-56.96 56.96-56.96 56.96 25.387 56.96 56.96-25.6 56.96-56.96 56.96zM298.667 149.333h597.333v85.333h-597.333v-85.333zM298.667 405.333h597.333v85.333h-597.333v-85.333zM298.667 746.667v-85.333h597.333v85.333h-597.333z" />
<glyph unicode="&#xe660;" glyph-name="format-list-numbered" d="M85.333 234.667h85.333v-21.333h-42.667v-42.667h42.667v-21.333h-85.333v-42.667h128v170.667h-128v-42.667zM128 618.667h42.667v170.667h-85.333v-42.667h42.667v-128zM85.333 490.667h76.8l-76.8-89.6v-38.4h128v42.667h-76.8l76.8 89.6v38.4h-128v-42.667zM298.667 746.667v-85.333h597.333v85.333h-597.333zM298.667 149.333h597.333v85.333h-597.333v-85.333zM298.667 405.333h597.333v85.333h-597.333v-85.333z" />
<glyph unicode="&#xe661;" glyph-name="format-paint" d="M768 789.333v42.667c0 23.467-19.2 42.667-42.667 42.667h-512c-23.467 0-42.667-19.2-42.667-42.667v-170.667c0-23.467 19.2-42.667 42.667-42.667h512c23.467 0 42.667 19.2 42.667 42.667v42.667h42.667v-170.667h-426.667v-469.333c0-23.467 19.2-42.667 42.667-42.667h85.333c23.467 0 42.667 19.2 42.667 42.667v384h341.333v341.333h-128z" />
<glyph unicode="&#xe662;" glyph-name="format-quote" d="M256 234.667h128l85.333 170.667v256h-256v-256h128zM597.333 234.667h128l85.333 170.667v256h-256v-256h128z" />
<glyph unicode="&#xe663;" glyph-name="format-size" d="M384 789.333v-128h213.333v-512h128v512h213.333v128h-554.667zM128 448h128v-298.667h128v298.667h128v128h-384v-128z" />
<glyph unicode="&#xe664;" glyph-name="format-strikethrough" d="M426.667 149.333h170.667v128h-170.667v-128zM213.333 789.333v-128h213.333v-128h170.667v128h213.333v128h-597.333zM128 362.667h768v85.333h-768v-85.333z" />
<glyph unicode="&#xe665;" glyph-name="format-textdirection-l-to-r" d="M768 789.333h-512v-85.333l277.333-256-277.333-256v-85.333h512v128h-298.667l213.333 213.333-213.333 213.333h298.667z" />
<glyph unicode="&#xe666;" glyph-name="format-textdirection-r-to-l" d="M384 533.333v-213.333h85.333v469.333h85.333v-469.333h85.333v469.333h85.333v85.333h-341.333c-94.293 0-170.667-76.373-170.667-170.667s76.373-170.667 170.667-170.667zM896 192l-170.667 170.667v-128h-512v-85.333h512v-128l170.667 170.667z" />
<glyph unicode="&#xe667;" glyph-name="format-underline" d="M512 234.667c141.44 0 256 114.56 256 256v341.333h-106.667v-341.333c0-82.56-66.773-149.333-149.333-149.333s-149.333 66.773-149.333 149.333v341.333h-106.667v-341.333c0-141.44 114.56-256 256-256zM213.333 149.333v-85.333h597.333v85.333h-597.333z" />
<glyph unicode="&#xe668;" glyph-name="forum" d="M896 704h-85.333v-384h-554.667v-85.333c0-23.467 19.2-42.667 42.667-42.667h469.333l170.667-170.667v640c0 23.467-19.2 42.667-42.667 42.667zM725.333 448v384c0 23.467-19.2 42.667-42.667 42.667h-554.667c-23.467 0-42.667-19.2-42.667-42.667v-597.333l170.667 170.667h426.667c23.467 0 42.667 19.2 42.667 42.667z" />
<glyph unicode="&#xe669;" glyph-name="frustrated" d="M366.304 676.608c-34.752 17.376-69.088 26.048-70.56 26.432-17.152 4.288-34.528-6.144-38.816-23.296s6.144-34.528 23.296-38.816c17.632-4.448 38.528-12.128 56.928-21.344-10.656-11.424-17.184-26.752-17.184-43.616 0-35.36 28.64-64 64-64s64 28.64 64 64c0 1.184-0.032 2.336-0.096 3.488-2.016 47.456-45.216 78.944-81.6 97.152zM512 960c-282.784 0-512-229.216-512-512s229.216-512 512-512 512 229.216 512 512-229.216 512-512 512zM236.512 136.352c10.72-5.312 22.752-8.352 35.488-8.352h480c12.736 0 24.8 3.008 35.488 8.352-73.376-64.928-169.824-104.352-275.488-104.352s-202.112 39.424-275.488 104.352zM256 208v96c0 8.672 7.328 16 16 16h112v-128h-112c-8.672 0-16 7.328-16 16zM448 192v128h128v-128h-128zM640 192v128h112c8.672 0 16-7.328 16-16v-96c0-8.672-7.328-16-16-16h-112zM823.648 172.512c5.312 10.72 8.352 22.752 8.352 35.488v96c0 44.096-35.904 80-80 80h-480c-44.096 0-80-35.904-80-80v-96c0-12.736 3.008-24.8 8.352-35.488-64.928 73.376-104.32 169.824-104.32 275.488 0 229.76 186.24 416 416 416s416-186.24 416-416c0-105.664-39.424-202.112-104.352-275.488zM728.224 703.040c-1.44-0.352-35.808-9.056-70.56-26.432-36.384-18.208-79.552-49.696-81.6-97.152-0.064-1.152-0.096-2.304-0.096-3.488 0-35.36 28.64-64 64-64s64 28.64 64 64c0 16.864-6.528 32.16-17.184 43.616 18.4 9.216 39.296 16.896 56.928 21.344 17.152 4.288 27.552 21.664 23.296 38.816s-21.664 27.584-38.816 23.296z" />
<glyph unicode="&#xe66a;" glyph-name="frustrated2" d="M256 304v-96c0-8.672 7.328-16 16-16h112v128h-112c-8.672 0-16-7.328-16-16zM448 320h128v-128h-128v128zM752 320h-112v-128h112c8.672 0 16 7.328 16 16v96c0 8.672-7.328 16-16 16zM512 960c-282.784 0-512-229.216-512-512s229.216-512 512-512 512 229.216 512 512-229.216 512-512 512zM576.096 579.488c2.048 47.456 45.216 78.944 81.6 97.152 34.752 17.376 69.088 26.048 70.56 26.432 17.152 4.288 34.528-6.144 38.816-23.296s-6.144-34.528-23.296-38.816c-17.632-4.448-38.528-12.128-56.928-21.344 10.656-11.424 17.184-26.752 17.184-43.616 0-35.36-28.64-64-64-64s-64 28.64-64 64c0 1.184 0.032 2.336 0.096 3.488zM256.96 679.744c4.288 17.152 21.664 27.584 38.816 23.296 1.44-0.352 35.808-9.056 70.56-26.432 36.384-18.208 79.552-49.696 81.6-97.152 0.064-1.152 0.096-2.304 0.096-3.488 0-35.36-28.64-64-64-64s-64 28.64-64 64c0 16.864 6.528 32.16 17.184 43.616-18.4 9.216-39.296 16.896-56.928 21.344-17.152 4.288-27.552 21.664-23.296 38.816zM832 208c0-44.096-35.904-80-80-80h-480c-44.096 0-80 35.904-80 80v96c0 44.096 35.904 80 80 80h480c44.096 0 80-35.904 80-80v-96z" />
<glyph unicode="&#xe66b;" glyph-name="fullscreen-exit" d="M213.333 277.333h128v-128h85.333v213.333h-213.333v-85.333zM341.333 618.667h-128v-85.333h213.333v213.333h-85.333v-128zM597.333 149.333h85.333v128h128v85.333h-213.333v-213.333zM682.667 618.667v128h-85.333v-213.333h213.333v85.333h-128z" />
<glyph unicode="&#xe66c;" glyph-name="fullscreen" d="M298.667 362.667h-85.333v-213.333h213.333v85.333h-128v128zM213.333 533.333h85.333v128h128v85.333h-213.333v-213.333zM725.333 234.667h-128v-85.333h213.333v213.333h-85.333v-128zM597.333 746.667v-85.333h128v-128h85.333v213.333h-213.333z" />
<glyph unicode="&#xe66d;" glyph-name="functions" d="M426.667 533.333v-213.333h85.333v469.333h85.333v-469.333h85.333v469.333h85.333v85.333h-341.333c-94.293 0-170.667-76.373-170.667-170.667s76.373-170.667 170.667-170.667zM341.333 234.667v128l-170.667-170.667 170.667-170.667v128h512v85.333h-512z" />
<glyph unicode="&#xe66e;" glyph-name="gesture" d="M196.053 666.24c29.867 30.507 59.733 57.813 73.173 52.267 21.12-8.747-0.427-44.373-12.8-65.067-10.667-17.92-122.027-165.76-122.027-269.227 0-54.613 20.267-99.84 57.387-127.147 32-23.68 74.027-30.933 112.64-19.627 45.653 13.44 83.2 59.52 130.56 117.973 51.627 63.573 120.747 146.773 174.080 146.773 69.547 0 70.4-43.093 75.093-76.587-161.707-27.733-229.76-156.8-229.76-229.547s61.44-132.053 136.747-132.053c69.333 0 183.253 56.747 200.107 260.267h104.747v106.667h-105.387c-6.4 70.4-46.507 178.987-171.947 178.987-96 0-178.56-81.493-210.56-121.387-24.747-30.933-87.68-105.6-97.493-116.267-10.88-12.587-28.8-35.84-47.573-35.84-18.987 0-30.507 35.627-15.573 82.133 14.933 46.72 59.733 122.027 78.933 149.973 33.493 48.64 55.253 82.133 55.253 139.947 0 93.867-69.973 123.307-107.093 123.307-56.32 0-105.387-42.667-116.267-53.547-15.147-15.36-27.947-27.947-37.333-39.467l75.093-72.533zM592.427 168.32c-13.227 0-31.36 11.093-31.36 30.933 0 25.6 30.933 93.867 122.667 117.973-13.227-114.987-61.44-148.907-91.307-148.907z" />
<glyph unicode="&#xe66f;" glyph-name="github" d="M512 947.36c-282.752 0-512-229.216-512-512 0-226.208 146.72-418.144 350.144-485.824 25.6-4.736 35.008 11.104 35.008 24.64 0 12.192-0.48 52.544-0.704 95.328-142.464-30.976-172.512 60.416-172.512 60.416-23.296 59.168-56.832 74.912-56.832 74.912-46.464 31.776 3.52 31.136 3.52 31.136 51.392-3.616 78.464-52.768 78.464-52.768 45.664-78.272 119.776-55.648 148.992-42.56 4.576 33.088 17.856 55.68 32.512 68.48-113.728 12.928-233.28 56.864-233.28 253.024 0 55.904 20 101.568 52.768 137.44-5.312 12.896-22.848 64.96 4.96 135.488 0 0 43.008 13.76 140.832-52.48 40.832 11.36 84.64 17.024 128.16 17.248 43.488-0.192 87.328-5.888 128.256-17.248 97.728 66.24 140.64 52.48 140.64 52.48 27.872-70.528 10.336-122.592 5.024-135.488 32.832-35.84 52.704-81.536 52.704-137.44 0-196.64-119.776-239.936-233.792-252.64 18.368-15.904 34.72-47.040 34.72-94.816 0-68.512-0.608-123.648-0.608-140.512 0-13.632 9.216-29.6 35.168-24.576 203.328 67.776 349.856 259.616 349.856 485.76 0 282.784-229.248 512-512 512z" />
<glyph unicode="&#xe670;" glyph-name="github2" d="M0 403.584c0-46.4 4.352-88.384 13.024-125.92s20.704-70.176 36.064-97.888 34.88-52.064 58.592-73.12c23.712-21.024 49.408-38.24 77.12-51.584s59.328-24.192 94.88-32.544c35.552-8.352 71.84-14.176 108.896-17.536s77.792-4.992 122.176-4.992c44.736 0 85.632 1.664 122.688 4.992s73.44 9.184 109.152 17.536 67.52 19.2 95.392 32.544c27.872 13.344 53.76 30.528 77.6 51.584s43.552 45.408 59.072 73.12 27.616 60.352 36.288 97.888c8.672 37.568 13.024 79.552 13.024 125.92 0 82.784-27.712 154.4-83.104 214.816 3.008 8 5.76 17.12 8.256 27.296s4.832 24.704 7.008 43.552c2.176 18.848 1.344 40.64-2.496 65.344s-10.944 49.92-21.28 75.616l-7.52 1.504c-5.344 0.992-14.112 0.736-26.304-0.768s-26.368-4.512-42.56-9.024c-16.192-4.512-37.056-13.184-62.592-26.048s-52.48-28.96-80.864-48.32c-48.736 13.344-115.68 20.032-200.8 20.032-84.8 0-151.552-6.688-200.288-20.032-28.384 19.36-55.488 35.456-81.376 48.32s-46.496 21.536-61.856 26.048c-15.36 4.512-29.696 7.424-43.072 8.768s-21.792 1.76-25.28 1.248-6.272-1.088-8.256-1.76c-10.336-25.696-17.44-50.912-21.28-75.616s-4.672-46.496-2.496-65.344 4.512-33.376 7.008-43.552c2.496-10.176 5.248-19.264 8.256-27.296-55.424-60.416-83.136-132.032-83.136-214.816zM125.696 277.92c0 48.064 21.856 92.128 65.6 132.192 13.024 12.032 28.192 21.12 45.568 27.296s36.96 9.664 58.848 10.528c21.856 0.832 42.816 0.672 62.848-0.512s44.736-2.752 74.112-4.768c29.376-2.016 54.752-3.008 76.128-3.008s46.72 0.992 76.096 3.008c29.376 2.016 54.080 3.584 74.112 4.768s40.96 1.344 62.848 0.512c21.856-0.832 41.472-4.352 58.848-10.528s32.544-15.264 45.568-27.296c43.744-39.392 65.6-83.456 65.6-132.192 0-28.704-3.584-54.176-10.784-76.352s-16.352-40.8-27.552-55.84-26.688-27.776-46.56-38.304c-19.872-10.528-39.232-18.624-58.080-24.288s-43.072-10.112-72.608-13.28c-29.536-3.168-55.904-5.088-79.104-5.76s-52.672-0.992-88.384-0.992-65.184 0.32-88.384 0.992c-23.2 0.672-49.568 2.592-79.104 5.76s-53.76 7.584-72.608 13.28c-18.848 5.664-38.208 13.76-58.080 24.288s-35.392 23.296-46.56 38.304c-11.168 15.008-20.352 33.632-27.552 55.84s-10.752 47.648-10.752 76.352zM640 288c0 53.024 28.64 96 64 96s64-42.976 64-96c0-53.024-28.64-96-64-96s-64 42.976-64 96zM256 288c0 53.024 28.64 96 64 96s64-42.976 64-96c0-53.024-28.64-96-64-96s-64 42.976-64 96z" />
<glyph unicode="&#xe671;" glyph-name="github3" d="M512 128.096c-19.168 0-38.304 9.92-58.144 29.76-7.808 7.808-7.808 20.48 0 28.288s20.48 7.808 28.288 0c12.192-12.224 21.984-18.144 29.856-18.144s17.664 5.92 29.856 18.144c7.808 7.808 20.48 7.808 28.288 0s7.808-20.48 0-28.288c-19.84-19.84-38.976-29.76-58.144-29.76zM0 434.496c0-49.888 4.256-95.136 12.8-135.68s20.544-75.744 36-105.536c15.456-29.792 35.008-55.904 58.656-78.336s49.344-40.928 77.056-55.456c27.744-14.528 59.456-26.304 95.2-35.264s72.096-15.264 109.056-18.848 77.696-5.376 122.144-5.376c44.448 0 85.248 1.792 122.4 5.376s73.6 9.856 109.344 18.848c35.744 8.96 67.552 20.736 95.456 35.264s53.792 33.024 77.6 55.456c23.808 22.432 43.456 48.544 58.944 78.336s27.552 64.96 36.256 105.536c8.704 40.576 13.056 85.792 13.056 135.68 0 89.376-27.744 166.368-83.2 230.976 3.2 8.608 5.952 18.496 8.256 29.6s4.544 26.816 6.656 47.104c2.144 20.288 1.344 43.712-2.4 70.272s-10.752 53.664-21.056 81.312l-8 1.632c-5.344 1.088-14.048 0.704-26.144-1.088s-26.208-5.024-42.4-9.696c-16.192-4.672-37.056-13.92-62.656-27.744s-52.608-31.328-81.056-52.512c-48.352 14.72-115.008 30.112-200 30.112s-151.808-15.392-200.544-30.112c-28.448 21.184-55.552 38.592-81.344 52.224s-46.4 22.976-61.856 28c-15.456 5.024-29.792 8.256-42.944 9.696s-21.6 1.888-25.344 1.344c-3.744-0.544-6.496-1.152-8.256-1.888-10.304-27.648-17.408-54.752-21.344-81.312s-4.8-49.888-2.656-69.984c2.144-20.096 4.448-35.904 6.944-47.392s5.344-21.344 8.544-29.6c-55.456-64.256-83.2-141.248-83.2-230.976zM136.544 320.608c0 58.016 21.344 110.624 64 157.856 12.8 14.4 27.648 25.312 44.544 32.704s36.096 11.616 57.6 12.608 42.048 0.8 61.6-0.608c19.552-1.408 43.744-3.296 72.544-5.696s53.696-3.616 74.656-3.616c20.96 0 45.856 1.184 74.656 3.616s52.992 4.288 72.544 5.696c19.552 1.408 40.096 1.6 61.6 0.608s40.8-5.216 57.856-12.608c17.056-7.392 32-18.304 44.8-32.704 42.656-47.232 64-99.84 64-157.856 0-34.016-3.552-64.32-10.656-90.944s-16.096-48.928-26.944-66.912c-10.848-18.016-26.048-33.216-45.6-45.632s-38.496-22.016-56.8-28.8c-18.304-6.784-41.952-12.096-70.944-15.904s-54.944-6.112-77.856-6.912c-22.944-0.8-51.808-1.216-86.656-1.216s-63.648 0.416-86.4 1.216c-22.752 0.8-48.608 3.104-77.6 6.912s-52.608 9.12-70.944 15.904c-18.304 6.816-37.248 16.416-56.8 28.8s-34.752 27.616-45.6 45.632c-10.848 18.016-19.84 40.32-26.944 66.912s-10.656 56.928-10.656 90.944zM256 352c0 53.024 28.64 96 64 96s64-42.976 64-96c0-53.024-28.64-96-64-96s-64 42.976-64 96zM640 352c0 53.024 28.64 96 64 96s64-42.976 64-96c0-53.024-28.64-96-64-96s-64 42.976-64 96z" />
<glyph unicode="&#xe672;" glyph-name="github4" d="M512 960c-282.784 0-512-229.216-512-512s229.216-512 512-512 512 229.216 512 512-229.216 512-512 512zM816.064 143.936c-39.52-39.52-85.504-70.528-136.704-92.192-12.992-5.504-26.208-10.336-39.616-14.496v76.736c0 40.32-13.824 70.016-41.504 88.992 17.344 1.664 33.248 4 47.744 7.008s29.824 7.328 46.016 12.992 30.656 12.416 43.488 20.256 25.152 18.016 36.992 30.496 21.76 26.656 29.76 42.496 14.336 34.848 19.008 56.992 7.008 46.592 7.008 73.248c0 51.68-16.832 95.68-50.496 132 15.328 40 13.664 83.488-4.992 130.496l-12.512 1.504c-8.672 0.992-24.256-2.656-46.752-11.008s-47.744-22.016-75.744-40.992c-39.68 11.008-80.832 16.512-123.488 16.512-43.008 0-84-5.504-123.008-16.512-17.664 12-34.4 21.92-50.24 29.76s-28.512 13.152-38.016 16-18.336 4.576-26.496 5.248-13.408 0.832-15.744 0.512-4-0.672-4.992-0.992c-18.656-47.328-20.32-90.848-4.992-130.496-33.664-36.32-50.496-80.32-50.496-132 0-26.656 2.336-51.072 7.008-73.248s11.008-41.152 19.008-56.992 17.92-30.016 29.76-42.496 24.16-22.656 36.992-30.496 27.328-14.592 43.488-20.256 31.488-10.016 46.016-12.992 30.4-5.344 47.744-7.008c-27.328-18.656-40.992-48.32-40.992-88.992v-78.24c-15.104 4.48-29.984 9.792-44.608 16-51.2 21.664-97.184 52.672-136.704 92.192s-70.528 85.504-92.192 136.704c-22.4 52.96-33.76 109.248-33.76 167.36s11.36 114.4 33.76 167.36c21.664 51.2 52.672 97.184 92.192 136.704s85.504 70.528 136.704 92.192c52.96 22.4 109.28 33.76 167.36 33.76s114.4-11.36 167.36-33.76c51.2-21.664 97.184-52.672 136.704-92.192s70.528-85.504 92.192-136.704c22.4-52.96 33.76-109.28 33.76-167.36s-11.36-114.4-33.76-167.36c-21.664-51.2-52.672-97.184-92.192-136.704z" />
<glyph unicode="&#xe673;" glyph-name="github5" d="M235.264 711.296c-50.784 0-94.496-16.8-131.072-50.4-38.080-35.84-57.152-80.672-57.152-134.432 0-35.84 10.368-69.472 31.296-100.832 18.688-29.12 38.176-47.808 63.776-56.032v-2.24c-25.6-10.432-36.96-36.576-36.96-78.432 0-32.128 11.36-56.032 36.96-71.712v-2.24c-70.656-23.136-103.008-66.080-103.008-128.832 0-54.528 23.744-94.496 70.080-119.872 36.576-20.16 83.584-30.24 140.352-30.24 138.176 0 207.392 57.888 207.392 173.664 0 72.448-53.312 116.896-160.128 133.312-24.64 3.712-43.296 12.704-55.968 26.88-9.696 9.696-14.528 19.424-14.528 29.12 0 27.616 14.944 43.712 44.832 48.192 45.568 6.72 82.72 27.808 111.488 63.296s43.136 77.12 43.136 124.928c0 14.944-4.512 31.008-10.496 48.16 19.424 4.48 33.056 8.608 43.296 12.32v115.392c-45.056-17.92-86.976-26.88-122.848-26.88-31.36 17.92-63.84 26.88-100.416 26.88zM247.616 152.224c62.752 0 94.112-19.040 94.112-57.152 0-40.352-28.768-60.48-86.272-60.48-65.728 0-98.592 19.424-98.592 58.24 0 39.584 30.24 59.392 90.752 59.392zM239.744 448c-47.040 0-70.592 25.76-70.592 77.312 0 55.264 23.52 82.912 70.592 82.912 22.4 0 39.968-8.608 52.64-25.76 10.464-15.68 15.68-34.368 15.68-56.032 0-52.288-22.784-78.432-68.352-78.432zM580.384 960c-21.664 0-40.128-8.224-55.456-24.64s-22.976-36.224-22.976-59.392c0-22.4 7.648-41.824 22.976-58.272s33.792-24.64 55.456-24.64c20.896 0 39.040 8.192 54.336 24.64s22.976 35.84 22.976 58.272c0 23.168-7.648 42.944-22.976 59.36s-33.44 24.64-54.336 24.64zM643.136 704h-126.592c1.504-14.336-0.64-36.032-0.64-71.136v-348.416c0-35.84 2.144-64.768 0.64-76.032h126.592c-1.504 16.384-5.408 44.672-5.408 82.752v343.936c0 32.864 3.904 54.56 5.408 68.896zM922.336 315.808c-32.864 0-49.088 25.024-49.088 75.072v206.624h49.856c8.96 0 17.024 0.48 27.104-0.256s14.144-0.256 19.264-0.256v106.976h-96.256v47.616c0 17.92 2.816 34.304 5.056 44.544h-129.952c2.24-10.24 2.016-25.888 2.016-46.784v-45.376h-56.32v-106.976c15.36 2.24 29.088 3.36 38.784 3.36l17.536-1.12v-202.784c0-62.752 7.968-108.672 23.648-137.792 20.928-38.848 57.632-58.272 112.128-58.272 38.848 0 73.12 7.456 98.72 22.4v112.032c-20.48-12.704-39.392-19.040-62.528-19.040z" />
<glyph unicode="&#xe674;" glyph-name="grade" d="M512 223.147l263.68-159.147-69.76 299.947 232.747 201.6-306.773 26.453-119.893 282.667-119.893-282.667-306.773-26.453 232.747-201.6-69.76-299.947z" />
<glyph unicode="&#xe675;" glyph-name="grin" d="M512-64c282.784 0 512 229.216 512 512s-229.216 512-512 512-512-229.216-512-512 229.216-512 512-512zM512 864c229.76 0 416-186.24 416-416s-186.24-416-416-416-416 186.24-416 416 186.24 416 416 416zM192 448v-64c0-140.8 115.2-256 256-256h128c140.8 0 256 115.2 256 256v64h-640zM384 203.008c-26.528 9.472-50.912 24.832-71.552 45.44-36.416 36.416-56.448 84.544-56.448 135.552h128v-180.992zM576 192h-128v192h128v-192zM711.552 248.448c-20.64-20.64-45.024-36-71.552-45.44v180.992h128c0-51.008-20.064-99.136-56.448-135.552zM225.344 576c0 0 0 0 0 0 9.76 0 18.112 7.040 19.712 16.704 6.144 36.672 37.664 63.296 74.912 63.296s68.768-26.624 74.912-63.296c1.6-9.632 9.952-16.704 19.712-16.704s18.112 7.040 19.712 16.672c1.088 6.432 1.632 12.928 1.632 19.328 0 63.968-52.032 116-116 116s-116-52.032-116-116c0-6.368 0.544-12.864 1.632-19.328 1.632-9.632 9.952-16.672 19.712-16.672zM609.344 576c0 0 0 0 0 0 9.76 0 18.112 7.040 19.712 16.704 6.144 36.672 37.664 63.296 74.912 63.296s68.768-26.624 74.912-63.296c1.6-9.632 9.952-16.704 19.712-16.704s18.112 7.040 19.712 16.672c1.088 6.432 1.632 12.928 1.632 19.328 0 63.968-52.032 116-116 116s-116-52.032-116-116c0-6.368 0.544-12.864 1.632-19.328 1.632-9.632 9.952-16.672 19.744-16.672z" />
<glyph unicode="&#xe676;" glyph-name="grin2" d="M512 960c-282.784 0-512-229.216-512-512s229.216-512 512-512c282.784 0 512 229.216 512 512s-229.216 512-512 512zM704 724c63.968 0 116-52.032 116-116 0-6.368-0.544-12.864-1.632-19.328-1.632-9.632-9.952-16.672-19.712-16.672s-18.112 7.040-19.712 16.704c-6.144 36.672-37.664 53.312-74.912 53.312s-68.768-16.64-74.912-53.312c-1.6-9.632-9.952-16.704-19.712-16.704 0 0 0 0 0 0-9.76 0-18.112 7.040-19.712 16.672-1.088 6.432-1.632 12.928-1.632 19.328 0 63.968 52.032 116 116 116zM320 724c63.968 0 116-52.032 116-116 0-6.368-0.544-12.864-1.632-19.328-1.632-9.632-9.952-16.672-19.712-16.672s-18.112 7.040-19.712 16.704c-6.176 36.672-37.664 53.312-74.912 53.312s-68.768-16.64-74.912-53.312c-1.632-9.632-9.952-16.704-19.712-16.704 0 0 0 0 0 0-9.76 0-18.112 7.040-19.712 16.672-1.088 6.432-1.632 12.928-1.632 19.328 0 63.968 52.032 116 116 116zM192 384h192v-247.84c-110.080 28.608-192 129.12-192 247.84zM448 128v256h128v-256h-128zM640 136.16v247.84h192c0-118.72-81.888-219.232-192-247.84z" />
<glyph unicode="&#xe677;" glyph-name="group-add" d="M341.333 533.333h-128v128h-85.333v-128h-128v-85.333h128v-128h85.333v128h128v85.333zM768 490.667c70.613 0 127.573 57.387 127.573 128s-56.96 128-127.573 128c-13.653 0-26.667-2.133-39.040-6.187 24.107-34.56 38.613-76.587 38.613-121.813s-14.507-87.253-38.613-121.813c12.373-4.053 25.387-6.187 39.040-6.187zM554.667 490.667c70.613 0 127.573 57.387 127.573 128s-56.96 128-127.573 128c-70.613 0-128-57.387-128-128s57.387-128 128-128zM837.12 398.507c35.413-30.933 58.88-70.827 58.88-121.173v-85.333h128v85.333c0 65.707-101.333 106.027-186.88 121.173zM554.667 405.333c-85.333 0-256-42.667-256-128v-85.333h512v85.333c0 85.333-170.667 128-256 128z" />
<glyph unicode="&#xe678;" glyph-name="group" d="M682.667 490.667c70.613 0 127.573 57.387 127.573 128s-56.96 128-127.573 128c-70.613 0-128-57.387-128-128s57.387-128 128-128zM341.333 490.667c70.613 0 127.573 57.387 127.573 128s-56.96 128-127.573 128c-70.613 0-128-57.387-128-128s57.387-128 128-128zM341.333 405.333c-99.627 0-298.667-49.92-298.667-149.333v-106.667h597.333v106.667c0 99.413-199.040 149.333-298.667 149.333zM682.667 405.333c-12.373 0-26.24-0.853-41.173-2.347 49.493-35.627 83.84-83.627 83.84-146.987v-106.667h256v106.667c0 99.413-199.040 149.333-298.667 149.333z" />
<glyph unicode="&#xe679;" glyph-name="happy" d="M512-64c282.784 0 512 229.216 512 512s-229.216 512-512 512-512-229.216-512-512 229.216-512 512-512zM512 864c229.76 0 416-186.24 416-416s-186.24-416-416-416-416 186.24-416 416 186.24 416 416 416zM512 361.248c115.936 0 226.24 30.816 320 84.928-14.56-178.432-153.12-318.144-320-318.144s-305.408 139.872-320 318.304c93.76-54.112 204.064-85.056 320-85.056zM256 608c0 53.024 28.64 96 64 96s64-42.976 64-96c0-53.024-28.64-96-64-96s-64 42.976-64 96zM640 608c0 53.024 28.64 96 64 96s64-42.976 64-96c0-53.024-28.64-96-64-96s-64 42.976-64 96z" />
<glyph unicode="&#xe67a;" glyph-name="happy2" d="M512 960c-282.784 0-512-229.216-512-512s229.216-512 512-512 512 229.216 512 512-229.216 512-512 512zM704 704c35.36 0 64-42.976 64-96s-28.64-96-64-96-64 42.976-64 96 28.64 96 64 96zM320 704c35.36 0 64-42.976 64-96s-28.64-96-64-96-64 42.976-64 96 28.64 96 64 96zM512 64c-166.88 0-305.408 139.872-320 318.304 93.76-54.112 204.064-85.056 320-85.056s226.24 30.816 320 84.928c-14.56-178.432-153.12-318.144-320-318.144z" />
<glyph unicode="&#xe67b;" glyph-name="help" d="M512 874.667c-235.733 0-426.667-190.933-426.667-426.667s190.933-426.667 426.667-426.667 426.667 190.933 426.667 426.667-190.933 426.667-426.667 426.667zM554.667 149.333h-85.333v85.333h85.333v-85.333zM642.773 479.787l-38.187-39.253c-30.72-30.72-49.92-56.533-49.92-120.533h-85.333v21.333c0 47.147 19.2 89.813 49.92 120.747l53.12 53.76c15.36 15.36 24.96 36.693 24.96 60.16 0 47.147-38.187 85.333-85.333 85.333s-85.333-38.187-85.333-85.333h-85.333c0 94.293 76.373 170.667 170.667 170.667s170.667-76.373 170.667-170.667c0-37.547-15.147-71.467-39.893-96.213z" />
<glyph unicode="&#xe67c;" glyph-name="highlight-remove" d="M622.293 618.667l-110.293-110.293-110.293 110.293-60.373-60.373 110.293-110.293-110.293-110.293 60.373-60.373 110.293 110.293 110.293-110.293 60.373 60.373-110.293 110.293 110.293 110.293-60.373 60.373zM512 874.667c-235.733 0-426.667-190.933-426.667-426.667s190.933-426.667 426.667-426.667 426.667 190.933 426.667 426.667-190.933 426.667-426.667 426.667zM512 106.667c-188.16 0-341.333 153.173-341.333 341.333s153.173 341.333 341.333 341.333 341.333-153.173 341.333-341.333-153.173-341.333-341.333-341.333z" />
<glyph unicode="&#xe67d;" glyph-name="hipster" d="M512-64c282.784 0 512 229.216 512 512s-229.216 512-512 512-512-229.216-512-512 229.216-512 512-512zM512 864c229.76 0 416-186.24 416-416s-186.24-416-416-416-416 186.24-416 416 186.24 416 416 416zM256 640c0 35.36 28.64 64 64 64s64-28.64 64-64-28.64-64-64-64-64 28.64-64 64zM640 640c0 35.36 28.64 64 64 64s64-28.64 64-64-28.64-64-64-64-64 28.64-64 64zM675.872 419.872c-37.504 37.504-98.272 37.504-135.776 0s-37.504-98.272 0-135.776c1.216-1.216 2.432-2.368 3.68-3.488 86.528-78.496 288.192 1.856 288.192 103.36-62.016-40-110.464-9.792-156.128 35.872zM348.128 419.872c37.504 37.504 98.272 37.504 135.776 0s37.504-98.272 0-135.776c-1.216-1.216-2.432-2.368-3.68-3.488-86.528-78.496-288.192 1.856-288.192 103.36 62.016-40 110.464-9.792 156.128 35.872z" />
<glyph unicode="&#xe67e;" glyph-name="hipster2" d="M512 960c-282.784 0-512-229.216-512-512s229.216-512 512-512 512 229.216 512 512-229.216 512-512 512zM704 704c35.36 0 64-28.64 64-64s-28.64-64-64-64-64 28.64-64 64 28.64 64 64 64zM320 704c35.36 0 64-28.64 64-64s-28.64-64-64-64-64 28.64-64 64 28.64 64 64 64zM543.808 280.64c-1.248 1.12-2.496 2.304-3.68 3.488-18.752 18.752-28.096 43.296-28.128 67.872 0-24.576-9.376-49.12-28.128-67.872-1.216-1.216-2.432-2.368-3.68-3.488-86.528-78.496-288.192 1.856-288.192 103.36 62.016-40 110.464-9.792 156.128 35.872 37.504 37.504 98.272 37.504 135.776 0 18.752-18.752 28.128-43.296 28.128-67.872 0 24.576 9.376 49.12 28.128 67.872 37.504 37.504 98.272 37.504 135.776 0 45.664-45.664 94.112-75.872 156.128-35.872 0-101.536-201.664-181.888-288.192-103.36z" />
<glyph unicode="&#xe67f;" glyph-name="history" d="M554.453 832c-212.267 0-383.787-171.947-383.787-384h-128l166.187-166.187 2.987-6.187 172.16 172.373h-128c0 164.907 133.76 298.667 298.667 298.667s298.667-133.76 298.667-298.667-133.76-298.667-298.667-298.667c-82.56 0-157.013 33.707-210.987 87.68l-60.373-60.373c69.333-69.547 165.12-112.64 271.147-112.64 212.267 0 384.213 171.947 384.213 384s-171.947 384-384.213 384zM512 618.667v-213.333l182.613-108.373 30.72 51.84-149.333 88.533v181.333h-64z" />
<glyph unicode="&#xe680;" glyph-name="home" d="M426.667 106.667v256h170.667v-256h213.333v341.333h128l-426.667 384-426.667-384h128v-341.333z" />
<glyph unicode="&#xe681;" glyph-name="https" d="M768 618.667h-42.667v85.333c0 117.76-95.573 213.333-213.333 213.333s-213.333-95.573-213.333-213.333v-85.333h-42.667c-47.147 0-85.333-38.187-85.333-85.333v-426.667c0-47.147 38.187-85.333 85.333-85.333h512c47.147 0 85.333 38.187 85.333 85.333v426.667c0 47.147-38.187 85.333-85.333 85.333zM512 234.667c-47.147 0-85.333 38.187-85.333 85.333s38.187 85.333 85.333 85.333 85.333-38.187 85.333-85.333-38.187-85.333-85.333-85.333zM644.267 618.667h-264.533v85.333c0 72.96 59.307 132.267 132.267 132.267s132.267-59.307 132.267-132.267v-85.333z" />
<glyph unicode="&#xe682;" glyph-name="image" d="M959.872 832c0.032-0.032 0.096-0.064 0.128-0.128v-767.776c-0.032-0.032-0.064-0.096-0.128-0.128h-895.776c-0.032 0.032-0.096 0.064-0.128 0.128v767.776c0.032 0.032 0.064 0.096 0.128 0.128h895.776zM960 896h-896c-35.2 0-64-28.8-64-64v-768c0-35.2 28.8-64 64-64h896c35.2 0 64 28.8 64 64v768c0 35.2-28.8 64-64 64v0zM832 672c0-53.024-42.976-96-96-96s-96 42.976-96 96 42.976 96 96 96 96-42.976 96-96zM896 128h-768v128l224 384 256-320h64l224 192z" />
<glyph unicode="&#xe683;" glyph-name="images" horiz-adv-x="1152" d="M1088 832h-64v64c0 35.2-28.8 64-64 64h-896c-35.2 0-64-28.8-64-64v-768c0-35.2 28.8-64 64-64h64v-64c0-35.2 28.8-64 64-64h896c35.2 0 64 28.8 64 64v768c0 35.2-28.8 64-64 64zM128 768v-640h-63.872c-0.032 0.032-0.096 0.064-0.128 0.128v767.776c0.032 0.032 0.064 0.096 0.128 0.128h895.776c0.032-0.032 0.096-0.064 0.128-0.128v-63.872h-768c-35.2 0-64-28.8-64-64v0zM1088 0.128c-0.032-0.032-0.064-0.096-0.128-0.128h-895.776c-0.032 0.032-0.096 0.064-0.128 0.128v767.776c0.032 0.032 0.064 0.096 0.128 0.128h895.776c0.032-0.032 0.096-0.064 0.128-0.128v-767.776zM960 608c0-53.024-42.976-96-96-96s-96 42.976-96 96 42.976 96 96 96 96-42.976 96-96zM1024 64h-768v128l224 384 256-320h64l224 192z" />
<glyph unicode="&#xe684;" glyph-name="import-export" d="M384 832l-170.667-170.24h128v-299.093h85.333v299.093h128l-170.667 170.24zM682.667 234.24v299.093h-85.333v-299.093h-128l170.667-170.24 170.667 170.24h-128z" />
<glyph unicode="&#xe685;" glyph-name="info-outline" d="M469.333 234.667h85.333v256h-85.333v-256zM512 874.667c-235.733 0-426.667-190.933-426.667-426.667s190.933-426.667 426.667-426.667 426.667 190.933 426.667 426.667-190.933 426.667-426.667 426.667zM512 106.667c-188.16 0-341.333 153.173-341.333 341.333s153.173 341.333 341.333 341.333 341.333-153.173 341.333-341.333-153.173-341.333-341.333-341.333zM469.333 576h85.333v85.333h-85.333v-85.333z" />
<glyph unicode="&#xe686;" glyph-name="info" d="M512 874.667c-235.733 0-426.667-190.933-426.667-426.667s190.933-426.667 426.667-426.667 426.667 190.933 426.667 426.667-190.933 426.667-426.667 426.667zM554.667 234.667h-85.333v256h85.333v-256zM554.667 576h-85.333v85.333h85.333v-85.333z" />
<glyph unicode="&#xe687;" glyph-name="input" d="M896 831.573h-768c-47.147 0-85.333-38.187-85.333-85.333v-170.24h85.333v171.093h768v-598.613h-768v171.52h-85.333v-171.093c0-47.147 38.187-84.48 85.333-84.48h768c47.147 0 85.333 37.547 85.333 84.48v597.333c0 47.147-38.187 85.333-85.333 85.333zM469.333 277.333l170.667 170.667-170.667 170.667v-128h-426.667v-85.333h426.667v-128z" />
<glyph unicode="&#xe688;" glyph-name="insert-invitation" d="M725.333 448h-213.333v-213.333h213.333v213.333zM682.667 917.333v-85.333h-341.333v85.333h-85.333v-85.333h-42.667c-47.147 0-84.907-38.187-84.907-85.333l-0.427-597.333c0-47.147 38.187-85.333 85.333-85.333h597.333c47.147 0 85.333 38.187 85.333 85.333v597.333c0 47.147-38.187 85.333-85.333 85.333h-42.667v85.333h-85.333zM810.667 149.333h-597.333v469.333h597.333v-469.333z" />
<glyph unicode="&#xe689;" glyph-name="insert-photo" d="M896 149.333v597.333c0 47.147-38.187 85.333-85.333 85.333h-597.333c-47.147 0-85.333-38.187-85.333-85.333v-597.333c0-47.147 38.187-85.333 85.333-85.333h597.333c47.147 0 85.333 38.187 85.333 85.333zM362.667 384l106.667-128.213 149.333 192.213 192-256h-597.333l149.333 192z" />
<glyph unicode="&#xe68a;" glyph-name="keyboard-arrow-down" d="M316.373 609.707l195.627-195.627 195.627 195.627 60.373-60.373-256-256-256 256z" />
<glyph unicode="&#xe68b;" glyph-name="keyboard-arrow-left" d="M657.707 263.040l-195.627 195.627 195.627 195.627-60.373 60.373-256-256 256-256z" />
<glyph unicode="&#xe68c;" glyph-name="keyboard-arrow-right" d="M366.293 257.707l195.627 195.627-195.627 195.627 60.373 60.373 256-256-256-256z" />
<glyph unicode="&#xe68d;" glyph-name="keyboard-arrow-up" d="M316.373 302.293l195.627 195.627 195.627-195.627 60.373 60.373-256 256-256-256z" />
<glyph unicode="&#xe68e;" glyph-name="label-outline" d="M752.427 710.613c-15.573 21.76-40.96 36.053-69.76 36.053l-469.333-0.427c-47.147 0-85.333-37.76-85.333-84.907v-426.667c0-47.147 38.187-84.907 85.333-84.907l469.333-0.427c28.8 0 54.187 14.293 69.76 36.053l186.24 262.613-186.24 262.613zM682.667 234.667h-469.333v426.667h469.333l151.253-213.333-151.253-213.333z" />
<glyph unicode="&#xe68f;" glyph-name="label" d="M752.427 710.613c-15.573 21.76-40.96 36.053-69.76 36.053l-469.333-0.427c-47.147 0-85.333-37.76-85.333-84.907v-426.667c0-47.147 38.187-84.907 85.333-84.907l469.333-0.427c28.8 0 54.187 14.293 69.76 36.053l186.24 262.613-186.24 262.613z" />
<glyph unicode="&#xe690;" glyph-name="language" d="M511.787 874.667c-235.733 0-426.453-190.933-426.453-426.667s190.72-426.667 426.453-426.667c235.733 0 426.88 190.933 426.88 426.667s-191.147 426.667-426.88 426.667zM807.253 618.667h-125.867c-13.867 53.333-33.28 104.533-58.88 151.893 78.507-26.88 143.787-81.28 184.747-151.893zM512 787.84c35.627-51.2 63.36-108.16 81.493-169.173h-162.987c18.133 61.013 45.867 117.973 81.493 169.173zM181.76 362.667c-7.040 27.307-11.093 55.893-11.093 85.333s4.053 58.027 11.093 85.333h144c-3.413-27.947-5.76-56.32-5.76-85.333s2.347-57.387 5.973-85.333h-144.213zM216.533 277.333h125.867c13.867-53.333 33.28-104.533 58.88-152.107-78.507 26.88-143.787 81.493-184.747 152.107zM342.4 618.667h-125.867c40.96 70.613 106.24 125.227 184.747 152.107-25.6-47.573-45.013-98.773-58.88-152.107zM512 108.16c-35.413 51.2-63.147 108.16-81.493 169.173h162.987c-18.347-61.013-46.080-117.973-81.493-169.173zM611.84 362.667h-199.68c-4.053 27.947-6.827 56.32-6.827 85.333s2.773 57.387 6.827 85.333h199.68c4.053-27.947 6.827-56.32 6.827-85.333s-2.773-57.387-6.827-85.333zM622.72 125.44c25.6 47.573 45.013 98.56 58.88 151.893h125.867c-41.173-70.613-106.453-125.013-184.747-151.893zM698.027 362.667c3.413 27.947 5.973 56.32 5.973 85.333s-2.347 57.387-5.973 85.333h144c7.040-27.307 11.307-55.893 11.307-85.333s-4.053-58.027-11.307-85.333h-144z" />
<glyph unicode="&#xe691;" glyph-name="link" d="M166.4 448c0 72.96 59.307 132.267 132.267 132.267h170.667v81.067h-170.667c-117.76 0-213.333-95.573-213.333-213.333s95.573-213.333 213.333-213.333h170.667v81.067h-170.667c-72.96 0-132.267 59.307-132.267 132.267zM341.333 405.333h341.333v85.333h-341.333v-85.333zM725.333 661.333h-170.667v-81.067h170.667c72.96 0 132.267-59.307 132.267-132.267s-59.307-132.267-132.267-132.267h-170.667v-81.067h170.667c117.76 0 213.333 95.573 213.333 213.333s-95.573 213.333-213.333 213.333z" />
<glyph unicode="&#xe692;" glyph-name="list" d="M128 405.333h85.333v85.333h-85.333v-85.333zM128 234.667h85.333v85.333h-85.333v-85.333zM128 576h85.333v85.333h-85.333v-85.333zM298.667 405.333h597.333v85.333h-597.333v-85.333zM298.667 234.667h597.333v85.333h-597.333v-85.333zM298.667 661.333v-85.333h597.333v85.333h-597.333z" />
<glyph unicode="&#xe693;" glyph-name="local-grocery-store" d="M298.667 192c-47.147 0-84.907-38.187-84.907-85.333s37.76-85.333 84.907-85.333 85.333 38.187 85.333 85.333-38.187 85.333-85.333 85.333zM42.667 874.667v-85.333h85.333l153.387-323.627-57.6-104.533c-6.613-12.373-10.453-26.24-10.453-41.173 0-47.147 38.187-85.333 85.333-85.333h512v85.333h-493.867c-5.973 0-10.667 4.693-10.667 10.667 0 1.92 0.427 3.627 1.28 5.12l38.187 69.547h317.867c32 0 59.947 17.707 74.667 43.947l152.533 276.907c3.413 5.973 5.333 13.013 5.333 20.48 0 23.68-19.2 42.667-42.667 42.667h-630.827l-40.533 85.333h-139.307zM725.333 192c-47.147 0-84.907-38.187-84.907-85.333s37.76-85.333 84.907-85.333 85.333 38.187 85.333 85.333-38.187 85.333-85.333 85.333z" />
<glyph unicode="&#xe694;" glyph-name="lock-open" d="M512 234.667c47.147 0 85.333 38.187 85.333 85.333s-38.187 85.333-85.333 85.333-85.333-38.187-85.333-85.333 38.187-85.333 85.333-85.333zM768 618.667h-42.667v85.333c0 117.76-95.573 213.333-213.333 213.333s-213.333-95.573-213.333-213.333h81.067c0 72.96 59.307 132.267 132.267 132.267s132.267-59.307 132.267-132.267v-85.333h-388.267c-47.147 0-85.333-38.187-85.333-85.333v-426.667c0-47.147 38.187-85.333 85.333-85.333h512c47.147 0 85.333 38.187 85.333 85.333v426.667c0 47.147-38.187 85.333-85.333 85.333zM768 106.667h-512v426.667h512v-426.667z" />
<glyph unicode="&#xe695;" glyph-name="lock-outline" d="M768 618.667h-42.667v85.333c0 117.76-95.573 213.333-213.333 213.333s-213.333-95.573-213.333-213.333v-85.333h-42.667c-47.147 0-85.333-38.187-85.333-85.333v-426.667c0-47.147 38.187-85.333 85.333-85.333h512c47.147 0 85.333 38.187 85.333 85.333v426.667c0 47.147-38.187 85.333-85.333 85.333zM512 836.267c72.96 0 132.267-59.307 132.267-132.267v-85.333h-260.267v85.333h-4.267c0 72.96 59.307 132.267 132.267 132.267zM768 106.667h-512v426.667h512v-426.667zM512 234.667c47.147 0 85.333 38.187 85.333 85.333s-38.187 85.333-85.333 85.333-85.333-38.187-85.333-85.333 38.187-85.333 85.333-85.333z" />
<glyph unicode="&#xe696;" glyph-name="lock" d="M768 618.667h-42.667v85.333c0 117.76-95.573 213.333-213.333 213.333s-213.333-95.573-213.333-213.333v-85.333h-42.667c-47.147 0-85.333-38.187-85.333-85.333v-426.667c0-47.147 38.187-85.333 85.333-85.333h512c47.147 0 85.333 38.187 85.333 85.333v426.667c0 47.147-38.187 85.333-85.333 85.333zM512 234.667c-47.147 0-85.333 38.187-85.333 85.333s38.187 85.333 85.333 85.333 85.333-38.187 85.333-85.333-38.187-85.333-85.333-85.333zM644.267 618.667h-264.533v85.333c0 72.96 59.307 132.267 132.267 132.267s132.267-59.307 132.267-132.267v-85.333z" />
<glyph unicode="&#xe697;" glyph-name="loop" d="M512 789.333v128l-170.667-170.667 170.667-170.667v128c141.44 0 256-114.56 256-256 0-43.307-10.88-83.84-29.653-119.68l62.293-62.293c33.067 52.907 52.693 114.987 52.693 181.973 0 188.587-152.747 341.333-341.333 341.333zM512 192c-141.44 0-256 114.56-256 256 0 43.307 10.88 83.84 29.653 119.68l-62.293 62.293c-33.067-52.907-52.693-114.987-52.693-181.973 0-188.587 152.747-341.333 341.333-341.333v-128l170.667 170.667-170.667 170.667v-128z" />
<glyph unicode="&#xe698;" glyph-name="loyalty" d="M913.493 465.92l-383.787 383.787c-15.36 15.36-36.693 24.96-60.373 24.96h-298.667c-47.147 0-85.333-38.187-85.333-85.333v-298.667c0-23.68 9.6-45.013 25.173-60.373l384-384c15.36-15.36 36.693-24.96 60.16-24.96 23.68 0 45.013 9.6 60.373 24.96l298.667 298.667c15.36 15.573 24.96 36.907 24.96 60.373 0 23.68-9.6 45.013-25.173 60.587zM234.667 661.333c-35.413 0-64 28.587-64 64s28.587 64 64 64 64-28.587 64-64-28.587-64-64-64zM736.853 308.48l-182.187-182.187-182.187 182.187c-19.2 19.413-31.147 46.080-31.147 75.52 0 58.88 47.787 106.667 106.667 106.667 29.44 0 56.32-11.947 75.52-31.36l31.147-31.147 31.147 31.147c19.413 19.413 46.080 31.36 75.52 31.36 58.88 0 106.667-47.787 106.667-106.667 0-29.44-11.947-56.107-31.147-75.52z" />
<glyph unicode="&#xe699;" glyph-name="map" d="M874.667 832c-2.347 0-4.48-0.213-6.613-1.067l-228.053-88.533-256 89.6-240.427-81.067c-8.96-2.987-15.573-10.667-15.573-20.48v-645.12c0-11.733 9.6-21.333 21.333-21.333 2.347 0 4.48 0.213 6.613 1.067l228.053 88.533 256-89.6 240.64 80.853c8.96 3.2 15.36 10.88 15.36 20.693v645.12c0 11.733-9.6 21.333-21.333 21.333zM640 149.333l-256 89.813v507.52l256-89.813v-507.52z" />
<glyph unicode="&#xe69a;" glyph-name="menu" d="M128 192h768v85.333h-768v-85.333zM128 405.333h768v85.333h-768v-85.333zM128 704v-85.333h768v85.333h-768z" />
<glyph unicode="&#xe69b;" glyph-name="merge-type" d="M725.333 88.96l60.373 60.373-145.707 145.707-60.373-60.373 145.707-145.707zM320 618.667h149.333v-238.293l-231.040-231.040 60.373-60.373 256 256v273.707h149.333l-192 192-192-192z" />
<glyph unicode="&#xe69c;" glyph-name="message" d="M853.333 874.667h-682.667c-47.147 0-84.907-38.187-84.907-85.333l-0.427-768 170.667 170.667h597.333c47.147 0 85.333 38.187 85.333 85.333v512c0 47.147-38.187 85.333-85.333 85.333zM768 362.667h-512v85.333h512v-85.333zM768 490.667h-512v85.333h512v-85.333zM768 618.667h-512v85.333h512v-85.333z" />
<glyph unicode="&#xe69d;" glyph-name="messenger" d="M853.333 874.667h-682.667c-47.147 0-85.333-38.187-85.333-85.333v-768l170.667 170.667h597.333c47.147 0 85.333 38.187 85.333 85.333v512c0 47.147-38.187 85.333-85.333 85.333z" />
<glyph unicode="&#xe69e;" glyph-name="mic" d="M512 362.667c70.613 0 127.573 57.387 127.573 128l0.427 256c0 70.827-57.173 128-128 128-70.613 0-128-57.173-128-128v-256c0-70.613 57.387-128 128-128zM738.133 490.667c0-128-108.16-217.6-226.133-217.6-117.76 0-226.133 89.6-226.133 217.6h-72.533c0-145.707 116.053-266.027 256-286.72v-139.947h85.333v139.947c139.947 20.693 256 141.013 256 286.72h-72.533z" />
<glyph unicode="&#xe69f;" glyph-name="mnone" d="M512 362.667c70.613 0 127.573 57.387 127.573 128l0.427 256c0 70.827-57.173 128-128 128-70.613 0-128-57.173-128-128v-256c0-70.613 57.387-128 128-128zM460.8 750.933c0 28.16 23.040 51.2 51.2 51.2s51.2-23.040 51.2-51.2l-0.427-264.533c0-28.16-22.827-51.2-50.773-51.2-28.16 0-51.2 23.040-51.2 51.2v264.533zM738.133 490.667c0-128-108.16-217.6-226.133-217.6-117.76 0-226.133 89.6-226.133 217.6h-72.533c0-145.707 116.053-266.027 256-286.72v-139.947h85.333v139.947c139.947 20.693 256 141.013 256 286.72h-72.533z" />
<glyph unicode="&#xe6a0;" glyph-name="moff" d="M810.667 490.667h-72.533c0-31.787-6.613-61.227-18.56-87.467l52.48-52.48c24.32 41.6 38.613 89.173 38.613 139.947zM639.36 483.627c0 2.347 0.64 4.693 0.64 7.040v256c0 70.827-57.387 128-128 128s-128-57.173-128-128v-7.893l255.36-255.147zM182.4 832l-54.4-54.4 256.427-256.427v-30.72c0-70.613 56.96-128 127.573-128 9.6 0 18.773 1.28 27.733 3.2l70.827-70.827c-30.507-14.080-64-21.973-98.56-21.973-117.76 0-226.133 89.6-226.133 217.6h-72.533c0-145.707 116.053-266.027 256-286.72v-139.733h85.333v139.947c38.613 5.76 75.307 19.2 108.373 38.613l178.56-178.56 54.4 54.187-713.6 713.813z" />
<glyph unicode="&#xe6a1;" glyph-name="more-horiz" d="M256 533.333c-47.147 0-85.333-38.187-85.333-85.333s38.187-85.333 85.333-85.333 85.333 38.187 85.333 85.333-38.187 85.333-85.333 85.333zM768 533.333c-47.147 0-85.333-38.187-85.333-85.333s38.187-85.333 85.333-85.333 85.333 38.187 85.333 85.333-38.187 85.333-85.333 85.333zM512 533.333c-47.147 0-85.333-38.187-85.333-85.333s38.187-85.333 85.333-85.333 85.333 38.187 85.333 85.333-38.187 85.333-85.333 85.333z" />
<glyph unicode="&#xe6a2;" glyph-name="more-vert" d="M512 618.667c47.147 0 85.333 38.187 85.333 85.333s-38.187 85.333-85.333 85.333-85.333-38.187-85.333-85.333 38.187-85.333 85.333-85.333zM512 533.333c-47.147 0-85.333-38.187-85.333-85.333s38.187-85.333 85.333-85.333 85.333 38.187 85.333 85.333-38.187 85.333-85.333 85.333zM512 277.333c-47.147 0-85.333-38.187-85.333-85.333s38.187-85.333 85.333-85.333 85.333 38.187 85.333 85.333-38.187 85.333-85.333 85.333z" />
<glyph unicode="&#xe6a3;" glyph-name="navigation" d="M512 874.667l-320-780.587 30.080-30.080 289.92 128 289.92-128 30.080 30.080z" />
<glyph unicode="&#xe6a4;" glyph-name="neutral" d="M512-64c282.784 0 512 229.216 512 512s-229.216 512-512 512-512-229.216-512-512 229.216-512 512-512zM512 864c229.76 0 416-186.24 416-416s-186.24-416-416-416-416 186.24-416 416 186.24 416 416 416zM256 640c0-35.36 28.64-64 64-64s64 28.64 64 64-28.64 64-64 64-64-28.64-64-64zM640 640c0-35.36 28.64-64 64-64s64 28.64 64 64-28.64 64-64 64-64-28.64-64-64zM384 256h256v-64h-256v64z" />
<glyph unicode="&#xe6a5;" glyph-name="neutral2" d="M512 960c-282.784 0-512-229.216-512-512s229.216-512 512-512c282.784 0 512 229.216 512 512s-229.216 512-512 512zM640 192h-256v64h256v-64zM704 704c35.36 0 64-28.64 64-64s-28.64-64-64-64-64 28.64-64 64c0 35.36 28.64 64 64 64zM320 704c35.36 0 64-28.64 64-64s-28.64-64-64-64-64 28.64-64 64c0 35.36 28.64 64 64 64z" />
<glyph unicode="&#xe6a6;" glyph-name="new-releases" d="M981.333 448l-104.107 118.613 14.507 157.227-154.027 34.773-80.64 135.68-145.067-62.293-145.067 62.293-80.64-135.68-154.027-34.773 14.507-157.227-104.107-118.613 104.107-118.613-14.507-157.227 154.027-34.773 80.64-135.68 145.067 62.293 145.067-62.293 80.64 135.68 154.027 34.773-14.507 157.227 104.107 118.613zM554.667 234.667h-85.333v85.333h85.333v-85.333zM554.667 405.333h-85.333v256h85.333v-256z" />
<glyph unicode="&#xe6a7;" glyph-name="open-in-browser" d="M810.667 789.333h-597.333c-47.147 0-85.333-38.187-85.333-85.333v-512c0-47.147 38.187-85.333 85.333-85.333h170.667v85.333h-170.667v426.667h597.333v-426.667h-170.667v-85.333h170.667c47.147 0 85.333 38.187 85.333 85.333v512c0 47.147-38.187 85.333-85.333 85.333zM512 533.333l-170.667-170.667h128v-256h85.333v256h128l-170.667 170.667z" />
<glyph unicode="&#xe6a8;" glyph-name="people-outline" d="M704 405.333c-51.413 0-131.2-14.293-192-42.88-60.8 28.587-140.587 42.88-192 42.88-92.373 0-277.333-46.293-277.333-138.667v-117.333h938.667v117.333c0 92.373-184.96 138.667-277.333 138.667zM533.333 213.333h-426.667v53.333c0 22.827 109.227 74.667 213.333 74.667s213.333-51.84 213.333-74.667v-53.333zM917.333 213.333h-320v53.333c0 19.413-8.533 36.693-22.187 52.053 37.76 12.8 83.84 22.613 128.853 22.613 104.107 0 213.333-51.84 213.333-74.667v-53.333zM320 448c82.56 0 149.333 66.987 149.333 149.333s-66.773 149.333-149.333 149.333c-82.347 0-149.333-66.987-149.333-149.333s66.987-149.333 149.333-149.333zM320 682.667c47.147 0 85.333-38.187 85.333-85.333s-38.187-85.333-85.333-85.333-85.333 38.187-85.333 85.333 38.187 85.333 85.333 85.333zM704 448c82.56 0 149.333 66.987 149.333 149.333s-66.773 149.333-149.333 149.333c-82.347 0-149.333-66.987-149.333-149.333s66.987-149.333 149.333-149.333zM704 682.667c47.147 0 85.333-38.187 85.333-85.333s-38.187-85.333-85.333-85.333-85.333 38.187-85.333 85.333 38.187 85.333 85.333 85.333z" />
<glyph unicode="&#xe6a9;" glyph-name="people" d="M682.667 490.667c70.613 0 127.573 57.387 127.573 128s-56.96 128-127.573 128c-70.613 0-128-57.387-128-128s57.387-128 128-128zM341.333 490.667c70.613 0 127.573 57.387 127.573 128s-56.96 128-127.573 128c-70.613 0-128-57.387-128-128s57.387-128 128-128zM341.333 405.333c-99.627 0-298.667-49.92-298.667-149.333v-106.667h597.333v106.667c0 99.413-199.040 149.333-298.667 149.333zM682.667 405.333c-12.373 0-26.24-0.853-41.173-2.347 49.493-35.627 83.84-83.627 83.84-146.987v-106.667h256v106.667c0 99.413-199.040 149.333-298.667 149.333z" />
<glyph unicode="&#xe6aa;" glyph-name="perm-identity" d="M512 708.267c49.493 0 89.6-40.107 89.6-89.6s-40.107-89.6-89.6-89.6-89.6 40.107-89.6 89.6 40.107 89.6 89.6 89.6zM512 324.267c126.933 0 260.267-62.080 260.267-89.6v-46.933h-520.533v46.933c0 27.52 133.333 89.6 260.267 89.6zM512 789.333c-94.293 0-170.667-76.373-170.667-170.667 0-94.080 76.373-170.667 170.667-170.667s170.667 76.587 170.667 170.667c0 94.293-76.373 170.667-170.667 170.667zM512 405.333c-113.707 0-341.333-56.96-341.333-170.667v-128h682.667v128c0 113.707-227.627 170.667-341.333 170.667z" />
<glyph unicode="&#xe6ab;" glyph-name="person-add" d="M640 448c94.293 0 170.667 76.587 170.667 170.667 0 94.293-76.373 170.667-170.667 170.667s-170.667-76.373-170.667-170.667c0-94.080 76.373-170.667 170.667-170.667zM256 533.333v128h-85.333v-128h-128v-85.333h128v-128h85.333v128h128v85.333h-128zM640 362.667c-113.707 0-341.333-56.96-341.333-170.667v-85.333h682.667v85.333c0 113.707-227.627 170.667-341.333 170.667z" />
<glyph unicode="&#xe6ac;" glyph-name="person-outline" d="M512 708.267c49.493 0 89.6-40.107 89.6-89.6s-40.107-89.6-89.6-89.6-89.6 40.107-89.6 89.6 40.107 89.6 89.6 89.6zM512 324.267c126.933 0 260.267-62.080 260.267-89.6v-46.933h-520.533v46.933c0 27.52 133.333 89.6 260.267 89.6zM512 789.333c-94.293 0-170.667-76.373-170.667-170.667 0-94.080 76.373-170.667 170.667-170.667s170.667 76.587 170.667 170.667c0 94.293-76.373 170.667-170.667 170.667zM512 405.333c-113.707 0-341.333-56.96-341.333-170.667v-128h682.667v128c0 113.707-227.627 170.667-341.333 170.667z" />
<glyph unicode="&#xe6ad;" glyph-name="person" d="M512 448c94.293 0 170.667 76.587 170.667 170.667 0 94.293-76.373 170.667-170.667 170.667s-170.667-76.373-170.667-170.667c0-94.080 76.373-170.667 170.667-170.667zM512 362.667c-113.707 0-341.333-56.96-341.333-170.667v-85.333h682.667v85.333c0 113.707-227.627 170.667-341.333 170.667z" />
<glyph unicode="&#xe6ae;" glyph-name="place" d="M512 874.667c-164.907 0-298.667-133.76-298.667-298.667 0-224 298.667-554.667 298.667-554.667s298.667 330.667 298.667 554.667c0 164.907-133.76 298.667-298.667 298.667zM512 469.333c-58.88 0-106.667 47.787-106.667 106.667s47.787 106.667 106.667 106.667 106.667-47.787 106.667-106.667-47.787-106.667-106.667-106.667z" />
<glyph unicode="&#xe6af;" glyph-name="publ" d="M512 874.667c-235.733 0-426.667-190.933-426.667-426.667s190.933-426.667 426.667-426.667 426.667 190.933 426.667 426.667-190.933 426.667-426.667 426.667zM469.333 109.653c-168.32 20.907-298.667 164.267-298.667 338.347 0 26.24 3.2 51.84 8.96 76.373l204.373-204.373v-42.667c0-47.147 38.187-85.333 85.333-85.333v-82.347zM763.52 217.813c-10.88 34.56-42.88 59.52-80.853 59.52h-42.667v128c0 23.467-19.2 42.667-42.667 42.667h-256v85.333h85.333c23.467 0 42.667 19.2 42.667 42.667v85.333h85.333c47.147 0 85.333 38.187 85.333 85.333v17.707c125.013-50.56 213.333-173.013 213.333-316.373 0-88.747-34.133-169.387-89.813-230.187z" />
<glyph unicode="&#xe6b0;" glyph-name="query-builder" d="M511.787 874.667c-235.733 0-426.453-190.933-426.453-426.667s190.72-426.667 426.453-426.667c235.733 0 426.88 190.933 426.88 426.667s-191.147 426.667-426.88 426.667zM512 106.667c-188.587 0-341.333 152.747-341.333 341.333s152.747 341.333 341.333 341.333 341.333-152.747 341.333-341.333-152.747-341.333-341.333-341.333zM533.333 661.333h-64v-256l223.787-134.4 32.213 52.48-192 113.92z" />
<glyph unicode="&#xe6b1;" glyph-name="question-answer" d="M896 704h-85.333v-384h-554.667v-85.333c0-23.467 19.2-42.667 42.667-42.667h469.333l170.667-170.667v640c0 23.467-19.2 42.667-42.667 42.667zM725.333 448v384c0 23.467-19.2 42.667-42.667 42.667h-554.667c-23.467 0-42.667-19.2-42.667-42.667v-597.333l170.667 170.667h426.667c23.467 0 42.667 19.2 42.667 42.667z" />
<glyph unicode="&#xe6b2;" glyph-name="receipt" d="M768 234.667h-512v85.333h512v-85.333zM768 405.333h-512v85.333h512v-85.333zM768 576h-512v85.333h512v-85.333zM128 21.333l64 64 64-64 64 64 64-64 64 64 64-64 64 64 64-64 64 64 64-64 64 64 64-64v853.333l-64-64-64 64-64-64-64 64-64-64-64 64-64-64-64 64-64-64-64 64-64-64-64 64v-853.333z" />
<glyph unicode="&#xe6b3;" glyph-name="recent-actors" d="M896 746.667v-597.333h85.333v597.333h-85.333zM725.333 149.333h85.333v597.333h-85.333v-597.333zM597.333 746.667h-512c-23.467 0-42.667-19.2-42.667-42.667v-512c0-23.467 19.2-42.667 42.667-42.667h512c23.467 0 42.667 19.2 42.667 42.667v512c0 23.467-19.2 42.667-42.667 42.667zM341.333 629.333c52.907 0 96-43.093 96-96 0-53.12-43.093-96-96-96s-96 42.88-96 96c0 52.907 43.093 96 96 96zM533.333 234.667h-384v32c0 64 128 96 192 96s192-32 192-96v-32z" />
<glyph unicode="&#xe6b4;" glyph-name="redeem" d="M853.333 704h-93.227c4.693 13.44 7.893 27.52 7.893 42.667 0 70.613-57.387 128-128 128-44.587 0-83.84-22.827-106.667-57.387l-21.333-29.013-21.333 29.013c-22.827 34.56-62.080 57.387-106.667 57.387-70.613 0-128-57.387-128-128 0-15.147 2.987-29.227 7.893-42.667h-93.227c-47.147 0-84.907-38.187-84.907-85.333l-0.427-469.333c0-47.147 38.187-85.333 85.333-85.333h682.667c47.147 0 85.333 38.187 85.333 85.333v469.333c0 47.147-38.187 85.333-85.333 85.333zM640 789.333c23.467 0 42.667-19.2 42.667-42.667s-19.2-42.667-42.667-42.667-42.667 19.2-42.667 42.667 19.2 42.667 42.667 42.667zM384 789.333c23.467 0 42.667-19.2 42.667-42.667s-19.2-42.667-42.667-42.667-42.667 19.2-42.667 42.667 19.2 42.667 42.667 42.667zM853.333 149.333h-682.667v85.333h682.667v-85.333zM853.333 362.667h-682.667v256h216.747l-88.747-120.96 69.333-49.707 144 196.053 42.667-58.027 101.333-138.027 69.333 49.707-88.747 120.96h216.747v-256z" />
<glyph unicode="&#xe6b5;" glyph-name="redo" d="M784.853 507.733c-78.507 68.907-181.333 110.933-294.187 110.933-198.4 0-366.293-129.28-424.96-308.053l100.907-33.28c44.8 136.32 172.8 234.667 324.053 234.667 83.413 0 159.147-30.72 218.24-80.427l-154.24-154.24h384v384l-153.813-153.6z" />
<glyph unicode="&#xe6b6;" glyph-name="refresh" d="M753.067 689.067c-61.653 61.867-146.773 100.267-241.067 100.267-188.587 0-340.907-152.747-340.907-341.333s152.32-341.333 340.907-341.333c158.933 0 292.053 108.8 329.813 256h-88.747c-35.2-99.413-129.493-170.667-241.067-170.667-141.44 0-256 114.56-256 256s114.56 256 256 256c70.613 0 133.973-29.44 180.267-75.733l-137.6-137.6h298.667v298.667l-100.267-100.267z" />
<glyph unicode="&#xe6b7;" glyph-name="remove-circle-outline" d="M298.667 490.667v-85.333h426.667v85.333h-426.667zM512 874.667c-235.733 0-426.667-190.933-426.667-426.667s190.933-426.667 426.667-426.667 426.667 190.933 426.667 426.667-190.933 426.667-426.667 426.667zM512 106.667c-188.16 0-341.333 153.173-341.333 341.333s153.173 341.333 341.333 341.333 341.333-153.173 341.333-341.333-153.173-341.333-341.333-341.333z" />
<glyph unicode="&#xe6b8;" glyph-name="remove-circle" d="M512 874.667c-235.733 0-426.667-190.933-426.667-426.667s190.933-426.667 426.667-426.667 426.667 190.933 426.667 426.667-190.933 426.667-426.667 426.667zM725.333 405.333h-426.667v85.333h426.667v-85.333z" />
<glyph unicode="&#xe6b9;" glyph-name="remove" d="M810.667 405.333h-597.333v85.333h597.333v-85.333z" />
<glyph unicode="&#xe6ba;" glyph-name="reorder" d="M128 320h768v85.333h-768v-85.333zM128 149.333h768v85.333h-768v-85.333zM128 490.667h768v85.333h-768v-85.333zM128 746.667v-85.333h768v85.333h-768z" />
<glyph unicode="&#xe6bb;" glyph-name="replay" d="M512 746.667v170.667l-213.333-213.333 213.333-213.333v170.667c141.44 0 256-114.56 256-256s-114.56-256-256-256-256 114.56-256 256h-85.333c0-188.587 152.747-341.333 341.333-341.333s341.333 152.747 341.333 341.333-152.747 341.333-341.333 341.333z" />
<glyph unicode="&#xe6bc;" glyph-name="reply-all" d="M298.667 618.667v128l-298.667-298.667 298.667-298.667v128l-170.667 170.667 170.667 170.667zM554.667 576v170.667l-298.667-298.667 298.667-298.667v174.933c213.333 0 362.667-68.267 469.333-217.6-42.667 213.333-170.667 426.667-469.333 469.333z" />
<glyph unicode="&#xe6bd;" glyph-name="reply" d="M426.667 576v170.667l-298.667-298.667 298.667-298.667v174.933c213.333 0 362.667-68.267 469.333-217.6-42.667 213.333-170.667 426.667-469.333 469.333z" />
<glyph unicode="&#xe6be;" glyph-name="report-problem" d="M42.667 64h938.667l-469.333 810.667-469.333-810.667zM554.667 192h-85.333v85.333h85.333v-85.333zM554.667 362.667h-85.333v170.667h85.333v-170.667z" />
<glyph unicode="&#xe6bf;" glyph-name="report" d="M671.147 832h-318.293l-224.853-224.853v-318.080l224.853-225.067h318.080l225.067 224.853v318.293l-224.853 224.853zM512 221.867c-30.507 0-55.467 24.747-55.467 55.467 0 30.507 24.96 55.467 55.467 55.467s55.467-24.747 55.467-55.467c0-30.72-24.96-55.467-55.467-55.467zM554.667 405.333h-85.333v256h85.333v-256z" />
<glyph unicode="&#xe6c0;" glyph-name="restore" d="M554.453 832c-212.267 0-383.787-171.947-383.787-384h-128l166.187-166.187 2.987-6.187 172.16 172.373h-128c0 164.907 133.76 298.667 298.667 298.667s298.667-133.76 298.667-298.667-133.76-298.667-298.667-298.667c-82.56 0-157.013 33.707-210.987 87.68l-60.373-60.373c69.333-69.547 165.12-112.64 271.147-112.64 212.267 0 384.213 171.947 384.213 384s-171.947 384-384.213 384zM512 618.667v-213.333l182.613-108.373 30.72 51.84-149.333 88.533v181.333h-64z" />
<glyph unicode="&#xe6c1;" glyph-name="room" d="M512 874.667c-164.907 0-298.667-133.76-298.667-298.667 0-224 298.667-554.667 298.667-554.667s298.667 330.667 298.667 554.667c0 164.907-133.76 298.667-298.667 298.667zM512 469.333c-58.88 0-106.667 47.787-106.667 106.667s47.787 106.667 106.667 106.667 106.667-47.787 106.667-106.667-47.787-106.667-106.667-106.667z" />
<glyph unicode="&#xe6c2;" glyph-name="sad" d="M512-64c282.784 0 512 229.216 512 512s-229.216 512-512 512-512-229.216-512-512 229.216-512 512-512zM512 864c229.76 0 416-186.24 416-416s-186.24-416-416-416-416 186.24-416 416 186.24 416 416 416zM256 640c0 35.36 28.64 64 64 64s64-28.64 64-64c0-35.36-28.64-64-64-64s-64 28.64-64 64zM640 640c0 35.36 28.64 64 64 64s64-28.64 64-64c0-35.36-28.64-64-64-64s-64 28.64-64 64zM319.904 179.264l-82.336 49.408c55.968 93.056 157.92 155.36 274.432 155.36s218.464-62.272 274.432-155.36l-82.336-49.408c-39.168 65.152-110.528 108.736-192.096 108.736s-152.928-43.584-192.096-108.736z" />
<glyph unicode="&#xe6c3;" glyph-name="sad2" d="M512 960c-282.784 0-512-229.216-512-512s229.216-512 512-512 512 229.216 512 512-229.216 512-512 512zM704 704c35.36 0 64-28.64 64-64s-28.64-64-64-64-64 28.64-64 64 28.64 64 64 64zM320 704c35.36 0 64-28.64 64-64s-28.64-64-64-64-64 28.64-64 64 28.64 64 64 64zM704.096 179.264c-39.168 65.152-110.528 108.736-192.096 108.736s-152.928-43.584-192.096-108.736l-82.336 49.408c55.968 93.056 157.92 155.36 274.432 155.36s218.464-62.272 274.432-155.36l-82.336-49.408z" />
<glyph unicode="&#xe6c4;" glyph-name="search" d="M661.333 362.667h-33.92l-11.733 11.733c41.813 48.427 66.987 111.36 66.987 180.267 0 153.173-124.16 277.333-277.333 277.333s-277.333-124.16-277.333-277.333 124.16-277.333 277.333-277.333c68.907 0 131.84 25.173 180.267 66.773l11.733-11.733v-33.707l213.333-212.907 63.573 63.573-212.907 213.333zM405.333 362.667c-106.027 0-192 85.973-192 192s85.973 192 192 192 192-85.973 192-192-85.973-192-192-192z" />
<glyph unicode="&#xe6c5;" glyph-name="settings-backup-restore" d="M597.333 448c0 47.147-38.187 85.333-85.333 85.333s-85.333-38.187-85.333-85.333 38.187-85.333 85.333-85.333 85.333 38.187 85.333 85.333zM512 832c-212.053 0-384-171.947-384-384h-128l170.667-170.667 170.667 170.667h-128c0 164.907 133.76 298.667 298.667 298.667s298.667-133.76 298.667-298.667-133.76-298.667-298.667-298.667c-64.64 0-124.16 20.693-173.227 55.68l-60.373-61.227c64.853-49.92 145.707-79.787 233.6-79.787 212.053 0 384 171.947 384 384s-171.947 384-384 384z" />
<glyph unicode="&#xe6c6;" glyph-name="settings-ethernet" d="M331.52 671.573l-65.707 54.4-230.827-277.973 230.827-278.187 65.707 54.4-185.6 223.787 185.6 223.573zM298.667 405.333h85.333v85.333h-85.333v-85.333zM725.333 490.667h-85.333v-85.333h85.333v85.333zM469.333 405.333h85.333v85.333h-85.333v-85.333zM758.187 726.187l-65.707-54.4 185.6-223.787-185.6-223.573 65.707-54.4 230.827 277.973-230.827 278.187z" />
<glyph unicode="&#xe6c7;" glyph-name="settings" d="M829.013 406.4c1.707 13.653 2.987 27.52 2.987 41.6s-1.28 27.947-2.987 41.6l90.24 70.613c8.107 6.4 10.453 17.92 5.12 27.307l-85.333 147.84c-5.333 9.173-16.427 13.013-26.027 9.173l-106.24-42.88c-21.973 16.853-46.080 31.147-72.107 42.027l-16 113.067c-1.92 10.027-10.667 17.92-21.333 17.92h-170.667c-10.667 0-19.413-7.893-21.12-17.92l-16-113.067c-26.027-10.88-50.133-24.96-72.107-42.027l-106.24 42.88c-9.6 3.627-20.693 0-26.027-9.173l-85.333-147.84c-5.333-9.173-2.987-20.693 5.12-27.307l90.027-70.613c-1.707-13.653-2.987-27.52-2.987-41.6s1.28-27.947 2.987-41.6l-90.027-70.613c-8.107-6.4-10.453-17.92-5.12-27.307l85.333-147.84c5.333-9.173 16.427-13.013 26.027-9.173l106.24 42.88c21.973-16.853 46.080-31.147 72.107-42.027l16-113.067c1.707-10.027 10.453-17.92 21.12-17.92h170.667c10.667 0 19.413 7.893 21.12 17.92l16 113.067c26.027 10.88 50.133 24.96 72.107 42.027l106.24-42.88c9.6-3.627 20.693 0 26.027 9.173l85.333 147.84c5.333 9.173 2.987 20.693-5.12 27.307l-90.027 70.613zM512 298.667c-82.56 0-149.333 66.773-149.333 149.333s66.773 149.333 149.333 149.333 149.333-66.773 149.333-149.333-66.773-149.333-149.333-149.333z" />
<glyph unicode="&#xe6c8;" glyph-name="share" d="M768 273.707c-32.427 0-61.653-12.587-83.84-32.853l-304 177.28c2.347 9.6 3.84 19.627 3.84 29.867s-1.493 20.267-3.84 29.867l300.8 175.573c22.827-21.333 53.333-34.56 87.040-34.56 70.613 0 128 57.387 128 128s-57.387 128-128 128-128-57.387-128-128c0-10.24 1.493-20.267 3.84-29.867l-300.8-175.573c-22.827 21.333-53.333 34.56-87.040 34.56-70.613 0-128-57.387-128-128s57.387-128 128-128c33.707 0 64.213 13.227 87.040 34.56l304-177.28c-2.133-8.96-3.413-18.347-3.413-27.947 0-68.693 55.68-124.373 124.373-124.373s124.373 55.68 124.373 124.373-55.68 124.373-124.373 124.373z" />
</font>
</defs>
</svg>
